<?xml version="1.0" encoding="UTF-8"?>
<svg id="_레이어_1" data-name="레이어 1" xmlns="http://www.w3.org/2000/svg" viewBox="0 0 110 110">
  <defs>
    <style>
      .cls-1 {
        fill: #edc6ad;
      }

      .cls-2, .cls-3, .cls-4 {
        fill: none;
      }

      .cls-3 {
        stroke-linejoin: round;
      }

      .cls-3, .cls-4 {
        stroke: #877261;
        stroke-linecap: round;
        stroke-width: 2.5px;
      }

      .cls-5 {
        fill: #877261;
      }

      .cls-4 {
        stroke-miterlimit: 10;
      }
    </style>
  </defs>
  <g>
    <polygon class="cls-5" points="9.95 81.87 30.28 77.81 30.28 81.87 9.95 81.87"/>
    <path class="cls-1" d="M67.23,62.77c0,5.42,1.33,10.54,3.68,15.04H26.63c12.34,0,22.35-10.01,22.35-22.35,0-3.66-.88-7.11-2.45-10.16h0c7.37-4.69,12.27-12.92,12.27-22.31,0-.69-.02-1.38-.07-2.06h0v-.02c3.59-2.58,5.93-6.79,5.93-11.55,0-2.94-.89-5.68-2.43-7.95,6.27,9.14,9.93,20.2,9.93,32.12,0,6.21-.99,12.19-2.84,17.78-.23.59-.43,1.19-.62,1.79,0,.02-.02.03-.02.04-.68,2.19-1.14,4.49-1.33,6.85-.08.92-.12,1.85-.12,2.8Z"/>
    <line class="cls-4" x1="46.53" y1="45.29" x2="74.99" y2="45.29"/>
    <path class="cls-4" d="M58.73,20.9h0c2.68,2.68,4.79,5.88,6.2,9.41l5.99,14.98"/>
    <path class="cls-3" d="M62.22,1.39c6.27,9.14,9.93,20.2,9.93,32.12,0,12.81-4.24,24.64-11.39,34.15l10.14,10.14"/>
    <polygon class="cls-5" points="83.11 77.81 83.11 77.81 87.18 83.9 87.18 87.97 74.99 90 74.99 77.81 83.11 77.81"/>
    <circle cx="79.05" cy="83.9" r="2.03"/>
    <path class="cls-5" d="M83.11,69.68h0v8.13h-8.13c0-4.49,3.64-8.13,8.13-8.13Z"/>
    <polygon class="cls-1" points="26.21 81.87 14.02 81.87 18.08 77.81 26.21 77.81 26.21 81.87"/>
    <polygon class="cls-5" points="14.02 77.81 74.99 77.81 74.99 90 22.15 81.87 14.02 77.81"/>
  </g>
  <rect class="cls-2" width="110" height="110"/>
</svg>