<?xml version="1.0" encoding="UTF-8"?>
<svg id="_레이어_1" data-name="레이어 1" xmlns="http://www.w3.org/2000/svg" xmlns:xlink="http://www.w3.org/1999/xlink" viewBox="0 0 110 110">
  <defs>
    <style>
      .cls-1, .cls-2 {
        fill: none;
      }

      .cls-3 {
        isolation: isolate;
        opacity: .2;
      }

      .cls-3, .cls-4 {
        fill: #4a4235;
      }

      .cls-5 {
        clip-path: url(#clippath-1);
      }

      .cls-6 {
        fill: #fab423;
      }

      .cls-2 {
        stroke: #0e0301;
        stroke-linecap: round;
        stroke-linejoin: round;
      }

      .cls-7 {
        clip-path: url(#clippath);
      }

      .cls-8 {
        fill: #0e0301;
      }
    </style>
    <clipPath id="clippath">
      <path class="cls-1" d="M66.67,58.88v9.31c0,8.76-4.38,16.95-11.67,21.81-7.29-4.86-11.67-13.04-11.67-21.81v-9.31c0-4.29,3.49-7.78,7.78-7.78h7.78c4.29,0,7.78,3.49,7.78,7.78Z"/>
    </clipPath>
    <clipPath id="clippath-1">
      <path class="cls-1" d="M43.33,29.7h0c0-3.22,2.61-5.84,5.84-5.84h11.67c3.22,0,5.84,2.61,5.84,5.84s-2.61,5.84-5.84,5.84h-11.67c-3.22,0-5.84-2.61-5.84-5.84Z"/>
    </clipPath>
  </defs>
  <g>
    <polyline class="cls-2" points="58.89 23.87 58.89 19.98 62.78 19.98"/>
    <polyline class="cls-2" points="51.11 23.87 51.11 19.98 47.22 19.98"/>
    <path class="cls-4" d="M66.67,58.88v9.31c0,8.76-4.38,16.95-11.67,21.81h0c-7.29-4.86-11.67-13.04-11.67-21.81v-9.31c0-4.29,3.49-7.78,7.78-7.78h7.78c4.29,0,7.78,3.49,7.78,7.78Z"/>
    <path class="cls-6" d="M43.33,43.32v-3.89c0-4.29,3.49-7.78,7.78-7.78h7.78c4.29,0,7.78,3.49,7.78,7.78v3.89c0,6.44-5.23,11.67-11.67,11.67h0c-6.44,0-11.67-5.23-11.67-11.67Z"/>
    <path class="cls-4" d="M43.33,39.43v-1.95c0-3.22,2.61-5.84,5.84-5.84h11.67c3.22,0,5.84,2.61,5.84,5.84v1.95c0,6.44-5.23,11.67-11.67,11.67h0c-6.44,0-11.67-5.23-11.67-11.67Z"/>
    <g class="cls-7">
      <g>
        <path class="cls-6" d="M70.56,47.21h0c0,2.15-1.73,3.89-3.88,3.89h-23.35c-2.15,0-3.88-1.74-3.88-3.89h0c0,5.37,4.36,9.73,9.73,9.73h11.66c5.37,0,9.73-4.36,9.73-9.73h0Z"/>
        <path class="cls-6" d="M70.56,54.99h0c0,2.15-1.73,3.89-3.88,3.89h-23.35c-2.15,0-3.88-1.74-3.88-3.89h0c0,5.37,4.36,9.73,9.73,9.73h11.66c5.37,0,9.73-4.36,9.73-9.73h0Z"/>
        <path class="cls-6" d="M70.56,62.77h0c0,2.15-1.73,3.89-3.88,3.89h-23.35c-2.15,0-3.88-1.74-3.88-3.89h0c0,4.29,3.49,7.78,7.78,7.78h15.55c4.29,0,7.78-3.49,7.78-7.78h0Z"/>
        <path class="cls-6" d="M70.56,70.55h0c0,2.15-1.73,3.89-3.88,3.89h-23.35c-2.15,0-3.88-1.74-3.88-3.89h0c0,4.29,3.49,7.78,7.78,7.78h15.55c4.29,0,7.78-3.49,7.78-7.78h0Z"/>
        <path class="cls-6" d="M66.67,78.33h0c0,2.15-1.74,3.89-3.89,3.89h-15.57c-2.15,0-3.88-1.74-3.88-3.89h0c0,4.3,3.48,7.78,7.77,7.78h7.79c4.29,0,7.78-3.49,7.78-7.78h0Z"/>
      </g>
    </g>
    <path class="cls-4" d="M43.33,29.7h0c0-3.22,2.61-5.84,5.84-5.84h11.67c3.22,0,5.84,2.61,5.84,5.84h0c0,3.22-2.61,5.84-5.84,5.84h-11.67c-3.22,0-5.84-2.61-5.84-5.84Z"/>
    <g class="cls-5">
      <g>
        <path class="cls-8" d="M43.33,31.65v-7.78h7.78c0,4.29-3.49,7.78-7.78,7.78h0Z"/>
        <path class="cls-8" d="M58.89,23.87h7.78v7.78c-4.29,0-7.78-3.49-7.78-7.78Z"/>
      </g>
    </g>
    <path class="cls-3" d="M1.95,39.43h41.38s-30.78,11.34-30.78,11.34c-3.56,1.31-7.56-.14-9.45-3.44l-2.85-4.99c-.74-1.3.19-2.91,1.69-2.91Z"/>
    <path class="cls-3" d="M108.05,39.43h-41.38s30.78,11.34,30.78,11.34c3.56,1.31,7.56-.14,9.45-3.44l2.85-4.99c.74-1.3-.19-2.91-1.69-2.91Z"/>
  </g>
  <rect class="cls-1" width="110" height="110"/>
</svg>