<?xml version="1.0" encoding="UTF-8"?>
<svg id="_레이어_1" data-name="레이어 1" xmlns="http://www.w3.org/2000/svg" viewBox="0 0 110 110">
  <defs>
    <style>
      .cls-1 {
        fill: #e5cf4c;
      }

      .cls-2, .cls-3 {
        fill: none;
      }

      .cls-4 {
        isolation: isolate;
        opacity: .1;
      }

      .cls-3 {
        stroke: #ffe655;
        stroke-linecap: round;
        stroke-miterlimit: 10;
      }

      .cls-5 {
        fill: #ffe655;
      }
    </style>
  </defs>
  <g>
    <path class="cls-5" d="M104.76,56.16v10.48c0,2.89-2.35,5.24-5.24,5.24h-10.48v-20.95h10.48c2.89,0,5.24,2.35,5.24,5.24Z"/>
    <polygon class="cls-5" points="83.81 71.87 78.57 71.87 73.33 50.92 83.81 50.92 83.81 71.87"/>
    <polygon class="cls-1" points="83.81 66.63 83.81 71.87 78.57 71.87 77.26 66.63 83.81 66.63"/>
    <path class="cls-5" d="M73.33,71.87l-3.93-15.71H18.33c-4.34,0-7.86,3.52-7.86,7.86h0c0,4.34,3.52,7.86,7.86,7.86h55Z"/>
    <path class="cls-1" d="M73.33,71.87H18.33c-2.17,0-4.13-.88-5.55-2.3-.82-.82-1.46-1.82-1.84-2.93h61.09l1.31,5.24Z"/>
    <path class="cls-4" d="M10.48,61.4h60.24l-2.62-10.48H0c0,5.78,4.69,10.48,10.48,10.48Z"/>
    <path class="cls-1" d="M104.76,61.4v5.24c0,1.45-.59,2.76-1.53,3.71-.95.94-2.26,1.53-3.71,1.53v-5.24c1.45,0,2.76-.59,3.71-1.53.94-.95,1.53-2.26,1.53-3.71Z"/>
    <line class="cls-3" x1="99.52" y1="56.16" x2="110" y2="40.44"/>
    <path d="M99.52,56.16v5.24c-2.89,0-5.24-2.35-5.24-5.24v-5.24c2.89,0,5.24,2.35,5.24,5.24Z"/>
    <path class="cls-5" d="M36.67,40.44h0l40.68,30.35c.79.68,1.23,1.68,1.23,2.71h0c0,1.99-1.61,3.6-3.6,3.6h-.3c-.86,0-1.69-.3-2.35-.87l-35.65-30.56v-5.24Z"/>
    <path class="cls-5" d="M37.19,46.13v31.5h-5.76v-1.05h4.71v-36.09c.17-.03.35-.05.52-.05v5.24l.52.45Z"/>
  </g>
  <rect class="cls-2" width="110" height="110"/>
</svg>