<?xml version="1.0" encoding="UTF-8"?>
<svg id="_레이어_1" data-name="레이어 1" xmlns="http://www.w3.org/2000/svg" viewBox="0 0 110 110">
  <defs>
    <style>
      .cls-1 {
        fill: #faf1d4;
      }

      .cls-2 {
        fill: #edc200;
      }

      .cls-3 {
        fill: none;
      }

      .cls-4 {
        fill: #ccc1a3;
      }
    </style>
  </defs>
  <g>
    <path class="cls-4" d="M0,75.45v-9.14c0-15.85,12.85-28.7,28.7-28.7h43.04c0-7.92,6.43-14.35,14.35-14.35h4.78c5.28,0,9.57,4.29,9.57,9.57v33.48c0,15.85-12.85,28.7-28.7,28.7H19.55c-10.8,0-19.55-8.75-19.55-19.55Z"/>
    <path class="cls-1" d="M100.43,32.83l7.65,5.74c1.21.9,1.91,2.32,1.91,3.83h0c0,2.64-2.14,4.78-4.78,4.78h-7.17l-7.17-9.57h0c0-2.64,2.14-4.78,4.78-4.78h4.78Z"/>
    <circle class="cls-2" cx="94.46" cy="36.41" r="1.2"/>
    <path d="M95.65,36.41c0,.17-.04.33-.11.48h-2.18c-.07-.15-.11-.31-.11-.48s.04-.33.11-.48h2.18c.07.15.11.31.11.48Z"/>
    <path class="cls-1" d="M81.3,32.83h4.78c0,2.64-2.14,4.78-4.78,4.78h-4.78c0-2.64,2.14-4.78,4.78-4.78Z"/>
  </g>
  <rect class="cls-3" width="110" height="110"/>
</svg>