<?xml version="1.0" encoding="UTF-8"?>
<svg id="_레이어_2" data-name="레이어 2" xmlns="http://www.w3.org/2000/svg" xmlns:xlink="http://www.w3.org/1999/xlink" viewBox="0 0 700 180">
  <defs>
    <style>
      .cls-1 {
        fill: #fff6e7;
      }

      .cls-2 {
        fill: #c65d59;
      }

      .cls-3 {
        fill: none;
      }

      .cls-4 {
        fill: #380814;
      }

      .cls-5 {
        fill: url(#_무제_그라디언트_42);
      }

      .cls-6 {
        fill: url(#_무제_그라디언트_42-2);
      }

      .cls-7 {
        fill: url(#_무제_그라디언트_20);
      }

      .cls-8 {
        fill: url(#_무제_그라디언트_16);
      }
    </style>
    <linearGradient id="_무제_그라디언트_20" data-name="무제 그라디언트 20" x1="587.08" y1="102.01" x2="587.08" y2="77.99" gradientUnits="userSpaceOnUse">
      <stop offset="0" stop-color="#fff6e7"/>
      <stop offset=".03" stop-color="#fdf1e3"/>
      <stop offset=".06" stop-color="#f8e5d7"/>
      <stop offset=".1" stop-color="#f1d0c4"/>
      <stop offset=".13" stop-color="#e6b3a9"/>
      <stop offset=".16" stop-color="#d88e86"/>
      <stop offset=".2" stop-color="#c7605c"/>
      <stop offset=".2" stop-color="#c65d59"/>
      <stop offset=".8" stop-color="#c65d59"/>
      <stop offset=".8" stop-color="#c7605c"/>
      <stop offset=".84" stop-color="#d88e86"/>
      <stop offset=".87" stop-color="#e6b3a9"/>
      <stop offset=".9" stop-color="#f1d0c4"/>
      <stop offset=".94" stop-color="#f8e5d7"/>
      <stop offset=".97" stop-color="#fdf1e3"/>
      <stop offset="1" stop-color="#fff6e7"/>
    </linearGradient>
    <linearGradient id="_무제_그라디언트_16" data-name="무제 그라디언트 16" x1="412.08" y1="102.01" x2="412.08" y2="77.99" gradientUnits="userSpaceOnUse">
      <stop offset="0" stop-color="#fff6e7"/>
      <stop offset=".03" stop-color="#fdf1e3"/>
      <stop offset=".06" stop-color="#f8e5d7"/>
      <stop offset=".1" stop-color="#f1d0c4"/>
      <stop offset=".13" stop-color="#e6b3a9"/>
      <stop offset=".16" stop-color="#d88e86"/>
      <stop offset=".2" stop-color="#c7605c"/>
      <stop offset=".2" stop-color="#c65d59"/>
      <stop offset=".8" stop-color="#c65d59"/>
      <stop offset=".8" stop-color="#c7605c"/>
      <stop offset=".84" stop-color="#d88e86"/>
      <stop offset=".87" stop-color="#e6b3a9"/>
      <stop offset=".9" stop-color="#f1d0c4"/>
      <stop offset=".94" stop-color="#f8e5d7"/>
      <stop offset=".97" stop-color="#fdf1e3"/>
      <stop offset="1" stop-color="#fff6e7"/>
    </linearGradient>
    <linearGradient id="_무제_그라디언트_42" data-name="무제 그라디언트 42" x1="240" y1="100" x2="240" y2="85" gradientUnits="userSpaceOnUse">
      <stop offset=".33" stop-color="#fff6e7"/>
      <stop offset=".35" stop-color="#faeadc"/>
      <stop offset=".41" stop-color="#ecc5b9"/>
      <stop offset=".48" stop-color="#e0a49b"/>
      <stop offset=".55" stop-color="#d68a83"/>
      <stop offset=".63" stop-color="#cf7670"/>
      <stop offset=".72" stop-color="#ca6763"/>
      <stop offset=".82" stop-color="#c65f5b"/>
      <stop offset="1" stop-color="#c65d59"/>
    </linearGradient>
    <linearGradient id="_무제_그라디언트_42-2" data-name="무제 그라디언트 42" x1="65" x2="65" xlink:href="#_무제_그라디언트_42"/>
  </defs>
  <g id="_레이어_1-2" data-name="레이어 1">
    <g>
      <path class="cls-2" d="M605,91.43v1.07l5,1.25-5,1.25h12.5l-2.5,7.5h-10l-5.83-.49c-5.18-.43-9.17-4.76-9.17-9.96v-4.1c0-5.2,3.99-9.53,9.17-9.96l5.83-.49h10l2.5,7.5h-12.5l5,1.25-5,1.25v1.07l15-1.07-15,1.5v2l15,1.5-15-1.07Z"/>
      <path class="cls-7" d="M599.17,102.01l-2.35-.19-17.2-1.44-2.33-.19c-1.29-.11-2.29-1.19-2.29-2.49v-15.4c0-1.3,1-2.38,2.29-2.49l2.33-.19,17.2-1.44,2.35-.19c-5.18.43-9.17,4.76-9.17,9.96v4.1c0,5.2,3.99,9.53,9.17,9.96Z"/>
      <polygon class="cls-1" points="615 102.5 615 102.5 617.5 95 620 95 615 102.5"/>
      <rect class="cls-1" x="620" y="110" width="5" height="2.5"/>
      <polygon class="cls-2" points="620 110 615 102.5 620 95 625 110 620 110"/>
      <polygon class="cls-2" points="625 112.5 620 112.5 625 177.5 625 112.5"/>
      <path class="cls-4" d="M605,82.5c0,.69-.28,1.32-.73,1.77-.21.21-.47.39-.75.51h-.01c-.78-.25-1.48-.68-2.05-1.24-.56-.57-.99-1.27-1.24-2.05h0c.12-.29.3-.55.51-.76.45-.45,1.08-.73,1.77-.73s1.32.28,1.77.73.73,1.08.73,1.77Z"/>
      <path class="cls-4" d="M605,97.5c0,.69-.28,1.32-.73,1.77-.45.45-1.08.73-1.77.73-1.02,0-1.9-.61-2.28-1.48h0c.25-.79.68-1.49,1.24-2.06.57-.56,1.27-.99,2.05-1.24h.01c.28.12.54.3.75.51.45.45.73,1.08.73,1.77Z"/>
      <polygon class="cls-1" points="615 77.5 615 77.5 617.5 85 620 85 615 77.5"/>
      <rect class="cls-1" x="620" y="67.5" width="5" height="2.5"/>
      <polygon class="cls-2" points="620 70 615 77.5 620 85 625 70 620 70"/>
      <polygon class="cls-2" points="625 67.5 620 67.5 625 2.5 625 67.5"/>
      <rect class="cls-3" x="525" width="175" height="180"/>
      <path class="cls-1" d="M562.5,102v8c-.34,0-.68-.03-1-.1v-9.63c.15.09.29.19.41.32.37.36.59.86.59,1.41Z"/>
      <path class="cls-1" d="M572.5,102v8c-.34,0-.68-.03-1-.1v-9.63c.15.09.29.19.41.32.37.36.59.86.59,1.41Z"/>
      <path class="cls-1" d="M567.5,102v8c-.34,0-.68-.03-1-.1v-9.63c.15.09.29.19.41.32.37.36.59.86.59,1.41Z"/>
      <path class="cls-1" d="M562.5,70v8c0,.55-.22,1.05-.59,1.41-.12.13-.26.23-.41.32v-9.63c.32-.07.66-.1,1-.1Z"/>
      <path class="cls-1" d="M572.5,70v8c0,.55-.22,1.05-.59,1.41-.12.13-.26.23-.41.32v-9.63c.32-.07.66-.1,1-.1Z"/>
      <path class="cls-1" d="M567.5,70v8c0,.55-.22,1.05-.59,1.41-.12.13-.26.23-.41.32v-9.63c.32-.07.66-.1,1-.1Z"/>
      <path class="cls-1" d="M532,75.52v12.98c-1.21-.91-2-2.37-2-4v-6.53c0-1.25.9-2.23,2-2.45Z"/>
      <path class="cls-1" d="M532,61.41v12.23c-1.23-.92-2-2.39-2-3.99v-5.8c0-1.27.91-2.22,2-2.44Z"/>
      <path class="cls-1" d="M571,80.1v19.8c-.32.07-.66.1-1,.1v-20c.34,0,.68.03,1,.1Z"/>
      <path class="cls-1" d="M566,80.1v19.8c-.32.07-.66.1-1,.1v-20c.34,0,.68.03,1,.1Z"/>
      <path class="cls-1" d="M561,80.1v19.8c-.32.07-.66.1-1,.1v-20c.34,0,.68.03,1,.1Z"/>
      <path class="cls-1" d="M556,80.1v19.8c-.32.07-.66.1-1,.1v-20c.34,0,.68.03,1,.1Z"/>
      <path class="cls-1" d="M551,80.1v19.8c-.32.07-.66.1-1,.1v-20c.34,0,.68.03,1,.1Z"/>
      <path class="cls-1" d="M546,80.1v19.8c-.32.07-.66.1-1,.1v-20c.34,0,.68.03,1,.1Z"/>
      <path class="cls-1" d="M532,91.5v12.98c-1.1-.22-2-1.2-2-2.45v-6.53c0-1.63.79-3.09,2-4Z"/>
      <path class="cls-1" d="M532,106.36v12.23c-1.09-.22-2-1.17-2-2.44v-5.8c0-1.6.77-3.07,2-3.99Z"/>
      <path class="cls-2" d="M545,81.3v8.2h-10c-1.13,0-2.17-.37-3-1v-12.98c.41-.08.85-.07,1.29.08l10,3.33c1.02.34,1.71,1.3,1.71,2.37Z"/>
      <path class="cls-2" d="M545,76.87v1.38l-11.58-3.86c-.52-.17-1-.43-1.42-.75v-12.23c.57-.13,1.19-.05,1.76.28l3.8,2.22c4.61,2.69,7.44,7.62,7.44,12.96Z"/>
      <path class="cls-2" d="M545,90.5v8.2c0,1.07-.69,2.03-1.71,2.37l-10,3.33c-.44.15-.88.16-1.29.08v-12.98c.83-.63,1.87-1,3-1h10Z"/>
      <path class="cls-2" d="M545,101.75v1.38c0,5.34-2.83,10.27-7.44,12.96l-3.8,2.22c-.57.33-1.19.41-1.76.28v-12.23c.42-.32.9-.58,1.42-.75l11.58-3.86Z"/>
      <path class="cls-2" d="M561.5,100.27v9.63c-2.28-.46-4-2.48-4-4.9v-2c0-1.66,1.34-3,3-3,.36,0,.71.1,1,.27Z"/>
      <path class="cls-2" d="M571.5,100.27v9.63c-2.28-.46-4-2.48-4-4.9v-2c0-1.66,1.34-3,3-3,.36,0,.71.1,1,.27Z"/>
      <path class="cls-2" d="M566.5,100.27v9.63c-2.28-.46-4-2.48-4-4.9v-2c0-1.66,1.34-3,3-3,.36,0,.71.1,1,.27Z"/>
      <path class="cls-2" d="M561.5,70.1v9.63c-.29.17-.64.27-1,.27-1.66,0-3-1.34-3-3v-2c0-2.42,1.72-4.44,4-4.9Z"/>
      <path class="cls-2" d="M571.5,70.1v9.63c-.29.17-.64.27-1,.27-1.66,0-3-1.34-3-3v-2c0-2.42,1.72-4.44,4-4.9Z"/>
      <path class="cls-2" d="M566.5,70.1v9.63c-.29.17-.64.27-1,.27-1.66,0-3-1.34-3-3v-2c0-2.42,1.72-4.44,4-4.9Z"/>
      <path class="cls-2" d="M575,85v10c0,2.42-1.72,4.44-4,4.9v-19.8c.98.2,1.86.68,2.54,1.36.9.91,1.46,2.16,1.46,3.54Z"/>
      <path class="cls-2" d="M570,85v10c0,2.42-1.72,4.44-4,4.9v-19.8c.98.2,1.86.68,2.54,1.36.9.91,1.46,2.16,1.46,3.54Z"/>
      <path class="cls-2" d="M565,85v10c0,2.42-1.72,4.44-4,4.9v-19.8c.98.2,1.86.68,2.54,1.36.9.91,1.46,2.16,1.46,3.54Z"/>
      <path class="cls-2" d="M560,85v10c0,2.42-1.72,4.44-4,4.9v-19.8c.98.2,1.86.68,2.54,1.36.9.91,1.46,2.16,1.46,3.54Z"/>
      <path class="cls-2" d="M555,85v10c0,2.42-1.72,4.44-4,4.9v-19.8c.98.2,1.86.68,2.54,1.36.9.91,1.46,2.16,1.46,3.54Z"/>
      <path class="cls-2" d="M550,85v10c0,2.42-1.72,4.44-4,4.9v-19.8c.98.2,1.86.68,2.54,1.36.9.91,1.46,2.16,1.46,3.54Z"/>
    </g>
    <g>
      <path class="cls-2" d="M430,91.43v1.07l5,1.25-5,1.25h10v7.5h-10l-5.83-.49c-5.18-.43-9.17-4.76-9.17-9.96v-4.1c0-5.2,3.99-9.53,9.17-9.96l5.83-.49h10v7.5h-10l5,1.25-5,1.25v1.07l15-1.07-15,1.5v2l15,1.5-15-1.07Z"/>
      <path class="cls-8" d="M424.17,102.01l-2.35-.19-17.2-1.44-2.33-.19c-1.29-.11-2.29-1.19-2.29-2.49v-15.4c0-1.3,1-2.38,2.29-2.49l2.33-.19,17.2-1.44,2.35-.19c-5.18.43-9.17,4.76-9.17,9.96v4.1c0,5.2,3.99,9.53,9.17,9.96Z"/>
      <path class="cls-1" d="M387.5,102v8c-.34,0-.68-.03-1-.1v-9.63c.15.09.29.19.41.32.37.36.59.86.59,1.41Z"/>
      <path class="cls-1" d="M397.5,102v8c-.34,0-.68-.03-1-.1v-9.63c.15.09.29.19.41.32.37.36.59.86.59,1.41Z"/>
      <path class="cls-1" d="M392.5,102v8c-.34,0-.68-.03-1-.1v-9.63c.15.09.29.19.41.32.37.36.59.86.59,1.41Z"/>
      <path class="cls-1" d="M387.5,70v8c0,.55-.22,1.05-.59,1.41-.12.13-.26.23-.41.32v-9.63c.32-.07.66-.1,1-.1Z"/>
      <path class="cls-1" d="M397.5,70v8c0,.55-.22,1.05-.59,1.41-.12.13-.26.23-.41.32v-9.63c.32-.07.66-.1,1-.1Z"/>
      <path class="cls-1" d="M392.5,70v8c0,.55-.22,1.05-.59,1.41-.12.13-.26.23-.41.32v-9.63c.32-.07.66-.1,1-.1Z"/>
      <path class="cls-1" d="M357,75.52v12.98c-1.21-.91-2-2.37-2-4v-6.53c0-1.25.9-2.23,2-2.45Z"/>
      <path class="cls-1" d="M357,61.41v12.23c-1.23-.92-2-2.39-2-3.99v-5.8c0-1.27.91-2.22,2-2.44Z"/>
      <path class="cls-4" d="M430,82.5c0,.69-.28,1.32-.73,1.77-.21.21-.47.39-.75.51h-.01c-.78-.25-1.48-.68-2.05-1.24-.56-.57-.99-1.27-1.24-2.05h0c.12-.29.3-.55.51-.76.45-.45,1.08-.73,1.77-.73s1.32.28,1.77.73.73,1.08.73,1.77Z"/>
      <path class="cls-4" d="M430,97.5c0,.69-.28,1.32-.73,1.77-.45.45-1.08.73-1.77.73-1.02,0-1.9-.61-2.28-1.48h0c.25-.79.68-1.49,1.24-2.06.57-.56,1.27-.99,2.05-1.24h.01c.28.12.54.3.75.51.45.45.73,1.08.73,1.77Z"/>
      <rect class="cls-1" x="440" y="77.5" width="2.5" height="7.5"/>
      <rect class="cls-1" x="452.5" y="77.5" width="2.5" height="5"/>
      <polygon class="cls-2" points="452.5 77.5 442.5 77.5 442.5 85 452.5 82.5 452.5 77.5"/>
      <polygon class="cls-2" points="455 82.5 455 77.5 520 82.5 455 82.5"/>
      <rect class="cls-1" x="440" y="95" width="2.5" height="7.5"/>
      <rect class="cls-1" x="452.5" y="97.5" width="2.5" height="5"/>
      <polygon class="cls-2" points="452.5 102.5 442.5 102.5 442.5 95 452.5 97.5 452.5 102.5"/>
      <polygon class="cls-2" points="455 97.5 455 102.5 520 97.5 455 97.5"/>
      <path class="cls-1" d="M396,80.1v19.8c-.32.07-.66.1-1,.1v-20c.34,0,.68.03,1,.1Z"/>
      <path class="cls-1" d="M391,80.1v19.8c-.32.07-.66.1-1,.1v-20c.34,0,.68.03,1,.1Z"/>
      <path class="cls-1" d="M386,80.1v19.8c-.32.07-.66.1-1,.1v-20c.34,0,.68.03,1,.1Z"/>
      <path class="cls-1" d="M381,80.1v19.8c-.32.07-.66.1-1,.1v-20c.34,0,.68.03,1,.1Z"/>
      <path class="cls-1" d="M376,80.1v19.8c-.32.07-.66.1-1,.1v-20c.34,0,.68.03,1,.1Z"/>
      <path class="cls-1" d="M371,80.1v19.8c-.32.07-.66.1-1,.1v-20c.34,0,.68.03,1,.1Z"/>
      <path class="cls-1" d="M357,91.5v12.98c-1.1-.22-2-1.2-2-2.45v-6.53c0-1.63.79-3.09,2-4Z"/>
      <path class="cls-1" d="M357,106.36v12.23c-1.09-.22-2-1.17-2-2.44v-5.8c0-1.6.77-3.07,2-3.99Z"/>
      <rect class="cls-3" x="350" width="175" height="180"/>
      <path class="cls-2" d="M370,81.3v8.2h-10c-1.13,0-2.17-.37-3-1v-12.98c.41-.08.85-.07,1.29.08l10,3.33c1.02.34,1.71,1.3,1.71,2.37Z"/>
      <path class="cls-2" d="M370,76.87v1.38l-11.58-3.86c-.52-.17-1-.43-1.42-.75v-12.23c.57-.13,1.19-.05,1.76.28l3.8,2.22c4.61,2.69,7.44,7.62,7.44,12.96Z"/>
      <path class="cls-2" d="M370,90.5v8.2c0,1.07-.69,2.03-1.71,2.37l-10,3.33c-.44.15-.88.16-1.29.08v-12.98c.83-.63,1.87-1,3-1h10Z"/>
      <path class="cls-2" d="M370,101.75v1.38c0,5.34-2.83,10.27-7.44,12.96l-3.8,2.22c-.57.33-1.19.41-1.76.28v-12.23c.42-.32.9-.58,1.42-.75l11.58-3.86Z"/>
      <path class="cls-2" d="M386.5,100.27v9.63c-2.28-.46-4-2.48-4-4.9v-2c0-1.66,1.34-3,3-3,.36,0,.71.1,1,.27Z"/>
      <path class="cls-2" d="M396.5,100.27v9.63c-2.28-.46-4-2.48-4-4.9v-2c0-1.66,1.34-3,3-3,.36,0,.71.1,1,.27Z"/>
      <path class="cls-2" d="M391.5,100.27v9.63c-2.28-.46-4-2.48-4-4.9v-2c0-1.66,1.34-3,3-3,.36,0,.71.1,1,.27Z"/>
      <path class="cls-2" d="M386.5,70.1v9.63c-.29.17-.64.27-1,.27-1.66,0-3-1.34-3-3v-2c0-2.42,1.72-4.44,4-4.9Z"/>
      <path class="cls-2" d="M396.5,70.1v9.63c-.29.17-.64.27-1,.27-1.66,0-3-1.34-3-3v-2c0-2.42,1.72-4.44,4-4.9Z"/>
      <path class="cls-2" d="M391.5,70.1v9.63c-.29.17-.64.27-1,.27-1.66,0-3-1.34-3-3v-2c0-2.42,1.72-4.44,4-4.9Z"/>
      <path class="cls-2" d="M400,85v10c0,2.42-1.72,4.44-4,4.9v-19.8c.98.2,1.86.68,2.54,1.36.9.91,1.46,2.16,1.46,3.54Z"/>
      <path class="cls-2" d="M395,85v10c0,2.42-1.72,4.44-4,4.9v-19.8c.98.2,1.86.68,2.54,1.36.9.91,1.46,2.16,1.46,3.54Z"/>
      <path class="cls-2" d="M390,85v10c0,2.42-1.72,4.44-4,4.9v-19.8c.98.2,1.86.68,2.54,1.36.9.91,1.46,2.16,1.46,3.54Z"/>
      <path class="cls-2" d="M385,85v10c0,2.42-1.72,4.44-4,4.9v-19.8c.98.2,1.86.68,2.54,1.36.9.91,1.46,2.16,1.46,3.54Z"/>
      <path class="cls-2" d="M380,85v10c0,2.42-1.72,4.44-4,4.9v-19.8c.98.2,1.86.68,2.54,1.36.9.91,1.46,2.16,1.46,3.54Z"/>
      <path class="cls-2" d="M375,85v10c0,2.42-1.72,4.44-4,4.9v-19.8c.98.2,1.86.68,2.54,1.36.9.91,1.46,2.16,1.46,3.54Z"/>
    </g>
    <g>
      <rect class="cls-1" x="277.5" y="90" width="2.5" height="5"/>
      <polygon class="cls-2" points="277.5 95 267.5 97.5 267.5 90 277.5 90 277.5 95"/>
      <polygon class="cls-2" points="280 90 285 90 280 110 280 90"/>
      <rect class="cls-3" x="175" width="175" height="180"/>
      <path class="cls-5" d="M255,100h-25c-2.76,0-5-2.24-5-5l10-10h5v6.4c0,1.39.58,2.68,1.54,3.6.52.51,1.16.9,1.88,1.14l11.58,3.86Z"/>
      <polygon class="cls-1" points="230 90 225 95 225 85 230 90"/>
      <path class="cls-2" d="M257.18,90h7.82v7.5l-10,2.5-11.58-3.86c-.72-.24-1.36-.63-1.88-1.14-.96-.92-1.54-2.21-1.54-3.6v-6.4h-5l-5,5-5-5c0-2.76,2.24-5,5-5h15c0-2.76,1.12-5.26,2.93-7.07,1.81-1.81,4.31-2.93,7.07-2.93-1.38,0-2.63.56-3.54,1.46-.9.91-1.46,2.16-1.46,3.54v5h10l-5,1.67v8.33l15-5-12.82,5Z"/>
      <rect class="cls-1" x="265" y="90" width="2.5" height="7.5"/>
      <path class="cls-1" d="M221,82v12.9c-.32.07-.66.1-1,.1v-12.5l1-.5Z"/>
      <path class="cls-1" d="M216,82v12.9c-.32.07-.66.1-1,.1v-12.5l1-.5Z"/>
      <path class="cls-1" d="M211,82v12.9c-.32.07-.66.1-1,.1v-12.5l1-.5Z"/>
      <path class="cls-1" d="M206,82v12.9c-.32.07-.66.1-1,.1v-12.5l1-.5Z"/>
      <path class="cls-1" d="M201,82v12.9c-.32.07-.66.1-1,.1v-12.5l1-.5Z"/>
      <path class="cls-1" d="M196,82v12.9c-.32.07-.66.1-1,.1v-12.5l1-.5Z"/>
      <path class="cls-1" d="M212.5,97v8c-.34,0-.68-.03-1-.1v-9.63c.15.09.29.19.41.32.37.36.59.86.59,1.41Z"/>
      <path class="cls-1" d="M222.5,97v8c-.34,0-.68-.03-1-.1v-9.63c.15.09.29.19.41.32.37.36.59.86.59,1.41Z"/>
      <path class="cls-1" d="M217.5,97v8c-.34,0-.68-.03-1-.1v-9.63c.15.09.29.19.41.32.37.36.59.86.59,1.41Z"/>
      <path class="cls-1" d="M182,86.59v9.31c-1.1-.22-2-1.19-2-2.45v-2.86c0-1.59.75-3.07,2-4Z"/>
      <path class="cls-1" d="M182,97.84v9.31c-1.1-.22-2-1.19-2-2.45v-2.86c0-1.59.75-3.07,2-4Z"/>
      <rect class="cls-4" x="250" y="77.5" width="5" height="5" rx="2.5" ry="2.5"/>
      <path class="cls-2" d="M195,91.25c0,3.07-.86,6-2.42,8.51-1.54,2.5-3.78,4.59-6.52,5.96l-2.44,1.22c-.53.27-1.1.32-1.62.21v-9.31c.23-.18.49-.34.76-.47l12.24-6.12Z"/>
      <path class="cls-2" d="M195,80v6.91c0,1.89-1.07,3.63-2.76,4.47l-8.62,4.31c-.53.27-1.1.32-1.62.21v-9.31c.23-.18.49-.33.76-.47l12.24-6.12Z"/>
      <path class="cls-2" d="M200,80v10c0,2.42-1.72,4.44-4,4.9v-12.9l4-2Z"/>
      <path class="cls-2" d="M205,80v10c0,2.42-1.72,4.44-4,4.9v-12.9l4-2Z"/>
      <path class="cls-2" d="M210,80v10c0,2.42-1.72,4.44-4,4.9v-12.9l4-2Z"/>
      <path class="cls-2" d="M225,80v10c0,2.42-1.72,4.44-4,4.9v-12.9l4-2Z"/>
      <path class="cls-2" d="M220,80v10c0,2.42-1.72,4.44-4,4.9v-12.9l4-2Z"/>
      <path class="cls-2" d="M215,80v10c0,2.42-1.72,4.44-4,4.9v-12.9l4-2Z"/>
      <path class="cls-2" d="M211.5,95.27v9.63c-2.28-.46-4-2.48-4-4.9v-2c0-1.66,1.34-3,3-3,.36,0,.71.1,1,.27Z"/>
      <path class="cls-2" d="M221.5,95.27v9.63c-2.28-.46-4-2.48-4-4.9v-2c0-1.66,1.34-3,3-3,.36,0,.71.1,1,.27Z"/>
      <path class="cls-2" d="M216.5,95.27v9.63c-2.28-.46-4-2.48-4-4.9v-2c0-1.66,1.34-3,3-3,.36,0,.71.1,1,.27Z"/>
    </g>
    <g>
      <path class="cls-6" d="M80,100h-25c-2.76,0-5-2.24-5-5l10-10h5v6.4c0,1.39.58,2.68,1.54,3.6.52.51,1.16.9,1.88,1.14l11.58,3.86Z"/>
      <polygon class="cls-1" points="55 90 50 95 50 85 55 90"/>
      <path class="cls-2" d="M82.18,90h7.82v7.5l-10,2.5-11.58-3.86c-.72-.24-1.36-.63-1.88-1.14-.96-.92-1.54-2.21-1.54-3.6v-6.4h-5l-5,5-5-5c0-2.76,2.24-5,5-5h15c0-2.76,1.12-5.26,2.93-7.07,1.81-1.81,4.31-2.93,7.07-2.93-1.38,0-2.63.56-3.54,1.46-.9.91-1.46,2.16-1.46,3.54v5h10l-5,1.67v8.33l15-5-12.82,5Z"/>
      <rect class="cls-1" x="90" y="90" width="2.5" height="7.5"/>
      <rect class="cls-1" x="102.5" y="90" width="2.5" height="5"/>
      <polygon class="cls-2" points="102.5 95 92.5 97.5 92.5 90 102.5 90 102.5 95"/>
      <polygon class="cls-2" points="105 90 105 95 170 90 105 90"/>
      <path class="cls-1" d="M46,82v12.9c-.32.07-.66.1-1,.1v-12.5l1-.5Z"/>
      <path class="cls-1" d="M41,82v12.9c-.32.07-.66.1-1,.1v-12.5l1-.5Z"/>
      <path class="cls-1" d="M36,82v12.9c-.32.07-.66.1-1,.1v-12.5l1-.5Z"/>
      <path class="cls-1" d="M31,82v12.9c-.32.07-.66.1-1,.1v-12.5l1-.5Z"/>
      <path class="cls-1" d="M26,82v12.9c-.32.07-.66.1-1,.1v-12.5l1-.5Z"/>
      <path class="cls-1" d="M21,82v12.9c-.32.07-.66.1-1,.1v-12.5l1-.5Z"/>
      <path class="cls-1" d="M37.5,97v8c-.34,0-.68-.03-1-.1v-9.63c.15.09.29.19.41.32.37.36.59.86.59,1.41Z"/>
      <path class="cls-1" d="M47.5,97v8c-.34,0-.68-.03-1-.1v-9.63c.15.09.29.19.41.32.37.36.59.86.59,1.41Z"/>
      <path class="cls-1" d="M42.5,97v8c-.34,0-.68-.03-1-.1v-9.63c.15.09.29.19.41.32.37.36.59.86.59,1.41Z"/>
      <path class="cls-1" d="M7,86.59v9.31c-1.1-.22-2-1.19-2-2.45v-2.86c0-1.59.75-3.07,2-4Z"/>
      <path class="cls-1" d="M7,97.84v9.31c-1.1-.22-2-1.19-2-2.45v-2.86c0-1.59.75-3.07,2-4Z"/>
      <rect class="cls-4" x="75" y="77.5" width="5" height="5" rx="2.5" ry="2.5"/>
      <rect class="cls-3" width="175" height="180"/>
      <path class="cls-2" d="M20,91.25c0,3.07-.86,6-2.42,8.51-1.54,2.5-3.78,4.59-6.52,5.96l-2.44,1.22c-.53.27-1.1.32-1.62.21v-9.31c.23-.18.49-.34.76-.47l12.24-6.12Z"/>
      <path class="cls-2" d="M20,80v6.91c0,1.89-1.07,3.63-2.76,4.47l-8.62,4.31c-.53.27-1.1.32-1.62.21v-9.31c.23-.18.49-.33.76-.47l12.24-6.12Z"/>
      <path class="cls-2" d="M25,80v10c0,2.42-1.72,4.44-4,4.9v-12.9l4-2Z"/>
      <path class="cls-2" d="M30,80v10c0,2.42-1.72,4.44-4,4.9v-12.9l4-2Z"/>
      <path class="cls-2" d="M35,80v10c0,2.42-1.72,4.44-4,4.9v-12.9l4-2Z"/>
      <path class="cls-2" d="M50,80v10c0,2.42-1.72,4.44-4,4.9v-12.9l4-2Z"/>
      <path class="cls-2" d="M45,80v10c0,2.42-1.72,4.44-4,4.9v-12.9l4-2Z"/>
      <path class="cls-2" d="M40,80v10c0,2.42-1.72,4.44-4,4.9v-12.9l4-2Z"/>
      <path class="cls-2" d="M36.5,95.27v9.63c-2.28-.46-4-2.48-4-4.9v-2c0-1.66,1.34-3,3-3,.36,0,.71.1,1,.27Z"/>
      <path class="cls-2" d="M46.5,95.27v9.63c-2.28-.46-4-2.48-4-4.9v-2c0-1.66,1.34-3,3-3,.36,0,.71.1,1,.27Z"/>
      <path class="cls-2" d="M41.5,95.27v9.63c-2.28-.46-4-2.48-4-4.9v-2c0-1.66,1.34-3,3-3,.36,0,.71.1,1,.27Z"/>
    </g>
  </g>
</svg>