<?xml version="1.0" encoding="UTF-8"?>
<svg id="_레이어_2" data-name="레이어 2" xmlns="http://www.w3.org/2000/svg" viewBox="0 0 380 215">
  <defs>
    <style>
      .cls-1 {
        fill: #edc6ad;
      }

      .cls-2, .cls-3, .cls-4, .cls-5, .cls-6 {
        fill: none;
      }

      .cls-2, .cls-4, .cls-5, .cls-6 {
        stroke: #877261;
        stroke-linecap: round;
      }

      .cls-2, .cls-5 {
        stroke-width: 2px;
      }

      .cls-2, .cls-6 {
        stroke-miterlimit: 10;
      }

      .cls-4, .cls-5 {
        stroke-linejoin: round;
      }

      .cls-4, .cls-6 {
        stroke-width: 2.5px;
      }

      .cls-7 {
        fill: #877261;
      }
    </style>
  </defs>
  <g id="_레이어_1-2" data-name="레이어 1">
    <g>
      <polygon class="cls-7" points="95 112.5 120 107.5 120 112.5 95 112.5"/>
      <polygon class="cls-7" points="185 107.5 185 107.5 190 115 190 120 175 122.5 175 107.5 185 107.5"/>
      <circle cx="180" cy="115" r="2.5"/>
      <polygon class="cls-1" points="115 112.5 100 112.5 105 107.5 115 107.5 115 112.5"/>
      <polygon class="cls-7" points="100 107.5 175 107.5 175 122.5 110 112.5 100 107.5"/>
      <path class="cls-7" d="M185,97.5h0v10h-10c0-5.52,4.48-10,10-10Z"/>
      <path class="cls-1" d="M165.46,126c0-6.67,1.64-12.97,4.53-18.5h-54.48c15.18,0,27.5,12.31,27.5,27.5,0,4.5-1.08,8.75-3.01,12.5h.01c9.07,5.77,15.09,15.9,15.09,27.45,0,.85-.03,1.7-.09,2.54h-.01v.02c4.42,3.17,7.29,8.35,7.29,14.21,0,3.62-1.1,6.99-2.99,9.78,7.71-11.24,12.22-24.85,12.22-39.51,0-7.64-1.22-14.99-3.49-21.87-.28-.72-.53-1.46-.76-2.2-.01-.02-.02-.04-.02-.05-.84-2.7-1.4-5.52-1.64-8.43-.1-1.13-.15-2.28-.15-3.44Z"/>
      <line class="cls-6" x1="140" y1="147.5" x2="175" y2="147.5"/>
      <path class="cls-6" d="M155,177.5h0c3.3-3.3,5.89-7.23,7.63-11.57l7.37-18.43"/>
      <path class="cls-4" d="M159.3,201.5c7.71-11.24,12.22-24.85,12.22-39.51,0-15.76-5.21-30.31-14.01-42.01l12.48-12.48"/>
      <rect class="cls-3" x="95" width="95" height="215"/>
    </g>
    <g>
      <polygon class="cls-7" points="0 112.5 25 107.5 25 112.5 0 112.5"/>
      <path class="cls-1" d="M70.46,89c0,6.67,1.64,12.97,4.53,18.5H20.51c15.18,0,27.5-12.31,27.5-27.5,0-4.5-1.08-8.75-3.01-12.5h.01c9.07-5.77,15.09-15.9,15.09-27.45,0-.85-.03-1.7-.09-2.54h-.01v-.02c4.42-3.17,7.29-8.35,7.29-14.21,0-3.62-1.1-6.99-2.99-9.78,7.71,11.24,12.22,24.85,12.22,39.51,0,7.64-1.22,14.99-3.49,21.87-.28.72-.53,1.46-.76,2.2-.01.02-.02.04-.02.05-.84,2.7-1.4,5.52-1.64,8.43-.1,1.13-.15,2.28-.15,3.44Z"/>
      <line class="cls-6" x1="45" y1="67.5" x2="80" y2="67.5"/>
      <path class="cls-6" d="M60,37.5h0c3.3,3.3,5.89,7.23,7.63,11.57l7.37,18.43"/>
      <path class="cls-4" d="M64.3,13.5c7.71,11.24,12.22,24.85,12.22,39.51,0,15.76-5.21,30.31-14.01,42.01l12.48,12.48"/>
      <polygon class="cls-7" points="90 107.5 90 107.5 95 115 95 120 80 122.5 80 107.5 90 107.5"/>
      <circle cx="85" cy="115" r="2.5"/>
      <path class="cls-7" d="M90,97.5h0v10h-10c0-5.52,4.48-10,10-10Z"/>
      <polygon class="cls-1" points="20 112.5 5 112.5 10 107.5 20 107.5 20 112.5"/>
      <polygon class="cls-7" points="5 107.5 80 107.5 80 122.5 15 112.5 5 107.5"/>
      <rect class="cls-3" width="95" height="215"/>
    </g>
    <g>
      <path class="cls-1" d="M355.46,92.58c0,1.77,1.64,3.45,4.53,4.92h-54.48c15.18,0,27.5-3.27,27.5-7.31,0-1.2-1.08-2.33-3.01-3.32h.01c9.07-1.53,15.09-4.23,15.09-7.3,0-.23-.03-.45-.09-.68h-.01c4.42-.85,7.29-2.23,7.29-3.78,0-.96-1.1-1.86-2.99-2.6,7.71,2.99,12.22,6.61,12.22,10.51,0,2.03-1.22,3.99-3.49,5.82-.28.19-.53.39-.76.59-.01,0-.02.01-.02.01-.84.72-1.4,1.47-1.64,2.24-.1.3-.15.61-.15.91Z"/>
      <line class="cls-2" x1="330" y1="86.86" x2="365" y2="86.86"/>
      <path class="cls-2" d="M345,78.88h0c3.3.88,5.89,1.92,7.63,3.08l7.37,4.9"/>
      <path class="cls-5" d="M349.3,72.5c7.71,2.99,12.22,6.61,12.22,10.51,0,4.19-5.21,8.06-14.01,11.17l12.48,3.32"/>
      <path class="cls-1" d="M355.46,122.42c0-1.77,1.64-3.45,4.53-4.92h-54.48c15.18,0,27.5,3.27,27.5,7.31,0,1.2-1.08,2.33-3.01,3.32h.01c9.07,1.53,15.09,4.23,15.09,7.3,0,.23-.03.45-.09.68h-.01c4.42.85,7.29,2.23,7.29,3.78,0,.96-1.1,1.86-2.99,2.6,7.71-2.99,12.22-6.61,12.22-10.51,0-2.03-1.22-3.99-3.49-5.82-.28-.19-.53-.39-.76-.59-.01,0-.02-.01-.02-.01-.84-.72-1.4-1.47-1.64-2.24-.1-.3-.15-.61-.15-.91Z"/>
      <line class="cls-2" x1="330" y1="128.14" x2="365" y2="128.14"/>
      <path class="cls-2" d="M345,136.12h0c3.3-.88,5.89-1.92,7.63-3.08l7.37-4.9"/>
      <path class="cls-5" d="M349.3,142.5c7.71-2.99,12.22-6.61,12.22-10.51,0-4.19-5.21-8.06-14.01-11.17l12.48-3.32"/>
      <path class="cls-7" d="M365,97.5l6.91-5.18c1.77-1.33,4.25-1.15,5.82.41h0c1.36,1.36,1.69,3.43.83,5.14l-3.56,7.13-10-7.5Z"/>
      <path class="cls-7" d="M375,110l-10,7.5,6.91,5.18c1.77,1.33,4.25,1.15,5.82-.41h0c1.36-1.36,1.69-3.43.83-5.14l-3.56-7.13Z"/>
      <polygon class="cls-1" points="305 97.5 305 117.5 295 117.5 290 107.5 295 97.5 305 97.5"/>
      <path class="cls-7" d="M380,105v5l-4.31,2.88c-6.95,4.63-15.17,6.97-23.52,6.7l-62.16-2.07,9.33-10-9.33-10,62.16-2.07c8.35-.28,16.57,2.06,23.52,6.7l4.31,2.88Z"/>
      <rect class="cls-3" x="285" width="95" height="215"/>
      <polygon class="cls-7" points="285 107.5 310 105 310 110 285 107.5"/>
    </g>
    <g>
      <path class="cls-1" d="M260.46,79c0,6.67,1.64,12.97,4.53,18.5h-54.48c15.18,0,27.5-12.31,27.5-27.5,0-4.5-1.08-8.75-3.01-12.5h.01c9.07-5.77,15.09-15.9,15.09-27.45,0-.85-.03-1.7-.09-2.54h-.01v-.02c4.42-3.17,7.29-8.35,7.29-14.21,0-3.62-1.1-6.99-2.99-9.78,7.71,11.24,12.22,24.85,12.22,39.51,0,7.64-1.22,14.99-3.49,21.87-.28.72-.53,1.46-.76,2.2-.01.02-.02.04-.02.05-.84,2.7-1.4,5.52-1.64,8.43-.1,1.13-.15,2.28-.15,3.44Z"/>
      <line class="cls-6" x1="235" y1="57.5" x2="270" y2="57.5"/>
      <path class="cls-6" d="M250,27.5h0c3.3,3.3,5.89,7.23,7.63,11.57l7.37,18.43"/>
      <path class="cls-4" d="M254.3,3.5c7.71,11.24,12.22,24.85,12.22,39.51,0,15.76-5.21,30.31-14.01,42.01l12.48,12.48"/>
      <path class="cls-1" d="M260.46,136c0-6.67,1.64-12.97,4.53-18.5h-54.48c15.18,0,27.5,12.31,27.5,27.5,0,4.5-1.08,8.75-3.01,12.5h.01c9.07,5.77,15.09,15.9,15.09,27.45,0,.85-.03,1.7-.09,2.54h-.01v.02c4.42,3.17,7.29,8.35,7.29,14.21,0,3.62-1.1,6.99-2.99,9.78,7.71-11.24,12.22-24.85,12.22-39.51,0-7.64-1.22-14.99-3.49-21.87-.28-.72-.53-1.46-.76-2.2-.01-.02-.02-.04-.02-.05-.84-2.7-1.4-5.52-1.64-8.43-.1-1.13-.15-2.28-.15-3.44Z"/>
      <line class="cls-6" x1="235" y1="157.5" x2="270" y2="157.5"/>
      <path class="cls-6" d="M250,187.5h0c3.3-3.3,5.89-7.23,7.63-11.57l7.37-18.43"/>
      <path class="cls-4" d="M254.3,211.5c7.71-11.24,12.22-24.85,12.22-39.51,0-15.76-5.21-30.31-14.01-42.01l12.48-12.48"/>
      <path class="cls-7" d="M270,97.5l6.91-5.18c1.77-1.33,4.25-1.15,5.82.41h0c1.36,1.36,1.69,3.43.83,5.14l-3.56,7.13-10-7.5Z"/>
      <path class="cls-7" d="M280,110l-10,7.5,6.91,5.18c1.77,1.33,4.25,1.15,5.82-.41h0c1.36-1.36,1.69-3.43.83-5.14l-3.56-7.13Z"/>
      <polygon class="cls-1" points="210 97.5 210 117.5 200 117.5 195 107.5 200 97.5 210 97.5"/>
      <rect class="cls-3" x="190" width="95" height="215"/>
      <polygon class="cls-7" points="190 107.5 215 105 215 110 190 107.5"/>
      <path class="cls-7" d="M285,105v5l-4.31,2.88c-6.95,4.63-15.17,6.97-23.52,6.7l-62.16-2.07,9.33-10-9.33-10,62.16-2.07c8.35-.28,16.57,2.06,23.52,6.7l4.31,2.88Z"/>
    </g>
  </g>
</svg>