<?xml version="1.0" encoding="UTF-8"?>
<svg id="_레이어_2" data-name="레이어 2" xmlns="http://www.w3.org/2000/svg" xmlns:xlink="http://www.w3.org/1999/xlink" viewBox="0 0 600 150">
  <defs>
    <style>
      .cls-1 {
        clip-path: url(#clippath-6);
      }

      .cls-2 {
        clip-path: url(#clippath-7);
      }

      .cls-3 {
        clip-path: url(#clippath-4);
      }

      .cls-4 {
        clip-path: url(#clippath-9);
      }

      .cls-5 {
        clip-path: url(#clippath-10);
      }

      .cls-6 {
        clip-path: url(#clippath-11);
      }

      .cls-7, .cls-8 {
        fill: none;
      }

      .cls-9 {
        clip-path: url(#clippath-1);
      }

      .cls-10, .cls-11 {
        fill: #4a4235;
      }

      .cls-12 {
        clip-path: url(#clippath-5);
      }

      .cls-13 {
        clip-path: url(#clippath-8);
      }

      .cls-14 {
        clip-path: url(#clippath-3);
      }

      .cls-15 {
        fill: #fab423;
      }

      .cls-8 {
        stroke: #0e0301;
        stroke-linecap: round;
        stroke-linejoin: round;
      }

      .cls-16 {
        clip-path: url(#clippath-2);
      }

      .cls-17 {
        clip-path: url(#clippath);
      }

      .cls-18 {
        fill: #0e0301;
      }

      .cls-11 {
        opacity: .2;
      }
    </style>
    <clipPath id="clippath">
      <path class="cls-7" d="M145,90h-11.97c-11.26,0-21.78-5.63-28.03-15h0s0,0,0,0c6.25-9.37,16.76-15,28.03-15h11.97c5.52,0,10,4.48,10,10v10c0,5.52-4.48,10-10,10Z"/>
    </clipPath>
    <clipPath id="clippath-1">
      <rect class="cls-7" x="175" y="60" width="15" height="30" rx="7.5" ry="7.5"/>
    </clipPath>
    <clipPath id="clippath-2">
      <path class="cls-7" d="M45,90h-11.97c-11.26,0-21.78-5.63-28.03-15h0s0,0,0,0c6.25-9.37,16.76-15,28.03-15h11.97c5.52,0,10,4.48,10,10v10c0,5.52-4.48,10-10,10Z"/>
    </clipPath>
    <clipPath id="clippath-3">
      <rect class="cls-7" x="75" y="60" width="15" height="30" rx="7.5" ry="7.5"/>
    </clipPath>
    <clipPath id="clippath-4">
      <path class="cls-7" d="M245,90h-11.97c-11.26,0-21.78-5.63-28.03-15h0s0,0,0,0c6.25-9.37,16.76-15,28.03-15h11.97c5.52,0,10,4.48,10,10v10c0,5.52-4.48,10-10,10Z"/>
    </clipPath>
    <clipPath id="clippath-5">
      <rect class="cls-7" x="275" y="60" width="15" height="30" rx="7.5" ry="7.5"/>
    </clipPath>
    <clipPath id="clippath-6">
      <path class="cls-15" d="M360,65h15c2.76,0,5,2.24,5,5v5c0,5.52-4.48,10-10,10h-10c-5.52,0-10-4.48-10-10h0c0-5.52,4.48-10,10-10Z"/>
    </clipPath>
    <clipPath id="clippath-7">
      <path class="cls-7" d="M345,85h-21.72c-5.3,0-10.39-2.11-14.14-5.86l-4.14-4.14,4.14-4.14c3.75-3.75,8.84-5.86,14.14-5.86h26.72c2.76,0,5,2.24,5,5v5c0,5.52-4.48,10-10,10Z"/>
    </clipPath>
    <clipPath id="clippath-8">
      <path class="cls-15" d="M460,65h15c2.76,0,5,2.24,5,5v5c0,5.52-4.48,10-10,10h-10c-5.52,0-10-4.48-10-10h0c0-5.52,4.48-10,10-10Z"/>
    </clipPath>
    <clipPath id="clippath-9">
      <path class="cls-7" d="M445,85h-21.72c-5.3,0-10.39-2.11-14.14-5.86l-4.14-4.14,4.14-4.14c3.75-3.75,8.84-5.86,14.14-5.86h26.72c2.76,0,5,2.24,5,5v5c0,5.52-4.48,10-10,10Z"/>
    </clipPath>
    <clipPath id="clippath-10">
      <path class="cls-15" d="M560,65h15c2.76,0,5,2.24,5,5v5c0,5.52-4.48,10-10,10h-10c-5.52,0-10-4.48-10-10h0c0-5.52,4.48-10,10-10Z"/>
    </clipPath>
    <clipPath id="clippath-11">
      <path class="cls-7" d="M545,85h-21.72c-5.3,0-10.39-2.11-14.14-5.86l-4.14-4.14,4.14-4.14c3.75-3.75,8.84-5.86,14.14-5.86h26.72c2.76,0,5,2.24,5,5v5c0,5.52-4.48,10-10,10Z"/>
    </clipPath>
  </defs>
  <g id="_레이어_1-2" data-name="레이어 1">
    <g>
      <polyline class="cls-8" points="190 80 195 80 195 85"/>
      <polyline class="cls-8" points="190 70 195 70 195 65"/>
      <path class="cls-10" d="M145,90h-11.97c-11.26,0-21.78-5.63-28.03-15h0s0,0,0,0c6.25-9.37,16.76-15,28.03-15h11.97c5.52,0,10,4.48,10,10v10c0,5.52-4.48,10-10,10Z"/>
      <path class="cls-15" d="M165,60h5c5.52,0,10,4.48,10,10v10c0,5.52-4.48,10-10,10h-5c-8.28,0-15-6.72-15-15h0c0-8.28,6.72-15,15-15Z"/>
      <path class="cls-10" d="M170,60h2.5c4.14,0,7.5,3.36,7.5,7.5v15c0,4.14-3.36,7.5-7.5,7.5h-2.5c-8.28,0-15-6.72-15-15h0c0-8.28,6.72-15,15-15Z"/>
      <g class="cls-17">
        <path class="cls-15" d="M160,95h-.01c-2.75,0-4.99-2.23-4.99-4.99v-30.01c0-2.76,2.24-4.99,5-4.99h0s0,0,0,0c-6.9,0-12.5,5.6-12.5,12.5v14.99c0,6.9,5.6,12.5,12.5,12.5h0Z"/>
        <path class="cls-15" d="M150,95h-.01c-2.75,0-4.99-2.23-4.99-4.99v-30.01c0-2.76,2.24-4.99,5-4.99h0s0,0,0,0c-6.9,0-12.5,5.6-12.5,12.5v14.99c0,6.9,5.6,12.5,12.5,12.5h0Z"/>
        <path class="cls-15" d="M140,95h-.01c-2.75,0-4.99-2.23-4.99-4.99v-30.01c0-2.76,2.24-4.99,5-4.99h0s0,0,0,0c-5.52,0-10,4.48-10,10v19.99c0,5.52,4.48,10,10,10h0Z"/>
        <path class="cls-15" d="M130,95h-.01c-2.75,0-4.99-2.23-4.99-4.99v-30.01c0-2.76,2.24-4.99,5-4.99h0s0,0,0,0c-5.52,0-10,4.48-10,10v19.99c0,5.52,4.48,10,10,10h0Z"/>
        <path class="cls-15" d="M120,90h0c-2.76,0-5-2.24-5-5v-20.01c0-2.76,2.24-4.99,5-4.99h0s-.01,0-.01,0c-5.52,0-9.99,4.47-9.99,9.99v10.01c0,5.52,4.48,10,10,10h0Z"/>
      </g>
      <rect class="cls-10" x="175" y="60" width="15" height="30" rx="7.5" ry="7.5"/>
      <g class="cls-9">
        <path class="cls-18" d="M180,60h10v10h0c-5.52,0-10-4.48-10-10h0Z"/>
        <path class="cls-18" d="M190,80h0v10h-10c0-5.52,4.48-10,10-10Z"/>
      </g>
      <path class="cls-11" d="M170,6.81v53.19l-14.57-39.56c-1.69-4.58.18-9.72,4.42-12.14l6.41-3.66c1.67-.95,3.74.25,3.74,2.17Z"/>
      <path class="cls-11" d="M170,143.19v-53.19l-14.57,39.56c-1.69,4.58.18,9.72,4.42,12.14l6.41,3.66c1.67.95,3.74-.25,3.74-2.17Z"/>
      <rect class="cls-7" x="100" width="100" height="150"/>
    </g>
    <g>
      <polyline class="cls-8" points="90 80 95 80 95 85"/>
      <polyline class="cls-8" points="90 70 95 70 95 65"/>
      <path class="cls-10" d="M45,90h-11.97c-11.26,0-21.78-5.63-28.03-15h0s0,0,0,0c6.25-9.37,16.76-15,28.03-15h11.97c5.52,0,10,4.48,10,10v10c0,5.52-4.48,10-10,10Z"/>
      <path class="cls-15" d="M65,60h5c5.52,0,10,4.48,10,10v10c0,5.52-4.48,10-10,10h-5c-8.28,0-15-6.72-15-15h0c0-8.28,6.72-15,15-15Z"/>
      <path class="cls-10" d="M70,60h2.5c4.14,0,7.5,3.36,7.5,7.5v15c0,4.14-3.36,7.5-7.5,7.5h-2.5c-8.28,0-15-6.72-15-15h0c0-8.28,6.72-15,15-15Z"/>
      <g class="cls-16">
        <path class="cls-15" d="M60,95h-.01c-2.75,0-4.99-2.23-4.99-4.99v-30.01c0-2.76,2.24-4.99,5-4.99h0s0,0,0,0c-6.9,0-12.5,5.6-12.5,12.5v14.99c0,6.9,5.6,12.5,12.5,12.5h0Z"/>
        <path class="cls-15" d="M50,95h-.01c-2.75,0-4.99-2.23-4.99-4.99v-30.01c0-2.76,2.24-4.99,5-4.99h0s0,0,0,0c-6.9,0-12.5,5.6-12.5,12.5v14.99c0,6.9,5.6,12.5,12.5,12.5h0Z"/>
        <path class="cls-15" d="M40,95h-.01c-2.75,0-4.99-2.23-4.99-4.99v-30.01c0-2.76,2.24-4.99,5-4.99h0s0,0,0,0c-5.52,0-10,4.48-10,10v19.99c0,5.52,4.48,10,10,10h0Z"/>
        <path class="cls-15" d="M30,95h-.01c-2.75,0-4.99-2.23-4.99-4.99v-30.01c0-2.76,2.24-4.99,5-4.99h0s0,0,0,0c-5.52,0-10,4.48-10,10v19.99c0,5.52,4.48,10,10,10h0Z"/>
        <path class="cls-15" d="M20,90h0c-2.76,0-5-2.24-5-5v-20.01c0-2.76,2.24-4.99,5-4.99h0s-.01,0-.01,0c-5.52,0-9.99,4.47-9.99,9.99v10.01c0,5.52,4.48,10,10,10h0Z"/>
      </g>
      <rect class="cls-10" x="75" y="60" width="15" height="30" rx="7.5" ry="7.5"/>
      <g class="cls-14">
        <path class="cls-18" d="M80,60h10v10h0c-5.52,0-10-4.48-10-10h0Z"/>
        <path class="cls-18" d="M90,80h0v10h-10c0-5.52,4.48-10,10-10Z"/>
      </g>
      <path class="cls-11" d="M19.12,103.88l50.88-13.88-41.4-4.14c-4.94-.49-9.49,2.71-10.7,7.53l-1.87,7.47c-.46,1.85,1.24,3.52,3.08,3.02Z"/>
      <path class="cls-11" d="M19.12,46.12l50.88,13.88-41.4,4.14c-4.94.49-9.49-2.71-10.7-7.53l-1.87-7.47c-.46-1.85,1.24-3.52,3.08-3.02Z"/>
      <rect class="cls-7" width="100" height="150"/>
    </g>
    <g>
      <polyline class="cls-8" points="290 80 295 80 295 85"/>
      <polyline class="cls-8" points="290 70 295 70 295 65"/>
      <path class="cls-10" d="M245,90h-11.97c-11.26,0-21.78-5.63-28.03-15h0s0,0,0,0c6.25-9.37,16.76-15,28.03-15h11.97c5.52,0,10,4.48,10,10v10c0,5.52-4.48,10-10,10Z"/>
      <path class="cls-15" d="M265,60h5c5.52,0,10,4.48,10,10v10c0,5.52-4.48,10-10,10h-5c-8.28,0-15-6.72-15-15h0c0-8.28,6.72-15,15-15Z"/>
      <path class="cls-10" d="M270,60h2.5c4.14,0,7.5,3.36,7.5,7.5v15c0,4.14-3.36,7.5-7.5,7.5h-2.5c-8.28,0-15-6.72-15-15h0c0-8.28,6.72-15,15-15Z"/>
      <g class="cls-3">
        <path class="cls-15" d="M260,95h-.01c-2.75,0-4.99-2.23-4.99-4.99v-30.01c0-2.76,2.24-4.99,5-4.99h0s0,0,0,0c-6.9,0-12.5,5.6-12.5,12.5v14.99c0,6.9,5.6,12.5,12.5,12.5h0Z"/>
        <path class="cls-15" d="M250,95h-.01c-2.75,0-4.99-2.23-4.99-4.99v-30.01c0-2.76,2.24-4.99,5-4.99h0s0,0,0,0c-6.9,0-12.5,5.6-12.5,12.5v14.99c0,6.9,5.6,12.5,12.5,12.5h0Z"/>
        <path class="cls-15" d="M240,95h-.01c-2.75,0-4.99-2.23-4.99-4.99v-30.01c0-2.76,2.24-4.99,5-4.99h0s0,0,0,0c-5.52,0-10,4.48-10,10v19.99c0,5.52,4.48,10,10,10h0Z"/>
        <path class="cls-15" d="M230,95h-.01c-2.75,0-4.99-2.23-4.99-4.99v-30.01c0-2.76,2.24-4.99,5-4.99h0s0,0,0,0c-5.52,0-10,4.48-10,10v19.99c0,5.52,4.48,10,10,10h0Z"/>
        <path class="cls-15" d="M220,90h0c-2.76,0-5-2.24-5-5v-20.01c0-2.76,2.24-4.99,5-4.99h0s-.01,0-.01,0c-5.52,0-9.99,4.47-9.99,9.99v10.01c0,5.52,4.48,10,10,10h0Z"/>
      </g>
      <rect class="cls-10" x="275" y="60" width="15" height="30" rx="7.5" ry="7.5"/>
      <g class="cls-12">
        <path class="cls-18" d="M280,60h10v10h0c-5.52,0-10-4.48-10-10h0Z"/>
        <path class="cls-18" d="M290,80h0v10h-10c0-5.52,4.48-10,10-10Z"/>
      </g>
      <path class="cls-11" d="M270,50.45v9.55s-14.57-7.1-14.57-7.1c-1.69-.82.18-1.74,4.42-2.18l6.41-.66c1.67-.17,3.74.05,3.74.39Z"/>
      <path class="cls-11" d="M270,99.55v-9.55s-14.57,7.1-14.57,7.1c-1.69.82.18,1.74,4.42,2.18l6.41.66c1.67.17,3.74-.05,3.74-.39Z"/>
      <rect class="cls-7" x="200" width="100" height="150"/>
    </g>
    <g>
      <path class="cls-15" d="M360,65h15c2.76,0,5,2.24,5,5v5c0,5.52-4.48,10-10,10h-10c-5.52,0-10-4.48-10-10h0c0-5.52,4.48-10,10-10Z"/>
      <g>
        <path class="cls-15" d="M360,65h15c2.76,0,5,2.24,5,5v5c0,5.52-4.48,10-10,10h-10c-5.52,0-10-4.48-10-10h0c0-5.52,4.48-10,10-10Z"/>
        <g class="cls-1">
          <path class="cls-10" d="M380,70h-20c-2.76,0-5-2.24-5-5h0s25,0,25,0v5Z"/>
        </g>
      </g>
      <path class="cls-10" d="M387.5,85h0c-4.14,0-7.5-3.36-7.5-7.5v-10c0-1.38,1.12-2.5,2.5-2.5h5c1.38,0,2.5,1.12,2.5,2.5v15c0,1.38-1.12,2.5-2.5,2.5Z"/>
      <path class="cls-15" d="M345,85h-21.72c-5.3,0-10.39-2.11-14.14-5.86l-4.14-4.14,4.14-4.14c3.75-3.75,8.84-5.86,14.14-5.86h26.72c2.76,0,5,2.24,5,5v5c0,5.52-4.48,10-10,10Z"/>
      <g class="cls-2">
        <path class="cls-10" d="M345,82.5v-17.51h2.51c2.76,0,4.99,2.25,4.99,5v15.01h-5c-1.38,0-2.5-1.12-2.5-2.5Z"/>
        <path class="cls-10" d="M335,82.5v-17.51h2.51c2.76,0,4.99,2.25,4.99,5v15.01h-5c-1.38,0-2.5-1.12-2.5-2.5Z"/>
        <path class="cls-10" d="M325,82.5v-17.51h2.51c1.38.01,2.49,1.13,2.49,2.51v17.51h-2.5c-1.38,0-2.5-1.12-2.5-2.5Z"/>
        <path class="cls-10" d="M315,82.5v-17.51h2.51c1.38.01,2.49,1.13,2.49,2.51v17.51h-2.5c-1.38,0-2.5-1.12-2.5-2.5Z"/>
        <path class="cls-10" d="M305,80.01v-10.03h2.51c1.38.01,2.49,1.13,2.49,2.51v7.51s-5,.01-5,.01Z"/>
      </g>
      <path class="cls-11" d="M323.56,55.71l46.41,9.27s0,0,0,0h-35.83c-2.65.01-5.2-1.04-7.07-2.92l-4.5-4.5c-.77-.77-.07-2.07.99-1.86Z"/>
      <path class="cls-18" d="M387.5,65h0c1.38,0,2.5,1.12,2.5,2.5v12.5h0c-2.76,0-5-2.24-5-5v-7.5c0-1.38,1.12-2.5,2.5-2.5Z"/>
      <polyline class="cls-8" points="390 67.5 395 67.5 395 80"/>
      <rect class="cls-7" x="300" width="100" height="150"/>
    </g>
    <g>
      <path class="cls-15" d="M460,65h15c2.76,0,5,2.24,5,5v5c0,5.52-4.48,10-10,10h-10c-5.52,0-10-4.48-10-10h0c0-5.52,4.48-10,10-10Z"/>
      <g>
        <path class="cls-15" d="M460,65h15c2.76,0,5,2.24,5,5v5c0,5.52-4.48,10-10,10h-10c-5.52,0-10-4.48-10-10h0c0-5.52,4.48-10,10-10Z"/>
        <g class="cls-13">
          <path class="cls-10" d="M480,70h-20c-2.76,0-5-2.24-5-5h0s25,0,25,0v5Z"/>
        </g>
      </g>
      <path class="cls-10" d="M487.5,85h0c-4.14,0-7.5-3.36-7.5-7.5v-10c0-1.38,1.12-2.5,2.5-2.5h5c1.38,0,2.5,1.12,2.5,2.5v15c0,1.38-1.12,2.5-2.5,2.5Z"/>
      <path class="cls-15" d="M445,85h-21.72c-5.3,0-10.39-2.11-14.14-5.86l-4.14-4.14,4.14-4.14c3.75-3.75,8.84-5.86,14.14-5.86h26.72c2.76,0,5,2.24,5,5v5c0,5.52-4.48,10-10,10Z"/>
      <g class="cls-4">
        <path class="cls-10" d="M445,82.5v-17.51h2.51c2.76,0,4.99,2.25,4.99,5v15.01h-5c-1.38,0-2.5-1.12-2.5-2.5Z"/>
        <path class="cls-10" d="M435,82.5v-17.51h2.51c2.76,0,4.99,2.25,4.99,5v15.01h-5c-1.38,0-2.5-1.12-2.5-2.5Z"/>
        <path class="cls-10" d="M425,82.5v-17.51h2.51c1.38.01,2.49,1.13,2.49,2.51v17.51h-2.5c-1.38,0-2.5-1.12-2.5-2.5Z"/>
        <path class="cls-10" d="M415,82.5v-17.51h2.51c1.38.01,2.49,1.13,2.49,2.51v17.51h-2.5c-1.38,0-2.5-1.12-2.5-2.5Z"/>
        <path class="cls-10" d="M405,80.01v-10.03h2.51c1.38.01,2.49,1.13,2.49,2.51v7.51s-5,.01-5,.01Z"/>
      </g>
      <path class="cls-18" d="M487.5,65h0c1.38,0,2.5,1.12,2.5,2.5v12.5h0c-2.76,0-5-2.24-5-5v-7.5c0-1.38,1.12-2.5,2.5-2.5Z"/>
      <polyline class="cls-8" points="490 67.5 495 67.5 495 80"/>
      <path class="cls-11" d="M470,11.81v53.19l-14.57-39.56c-1.69-4.58.18-9.72,4.42-12.14l6.41-3.66c1.67-.95,3.74.25,3.74,2.17Z"/>
      <rect class="cls-7" x="400" width="100" height="150"/>
    </g>
    <g>
      <path class="cls-15" d="M560,65h15c2.76,0,5,2.24,5,5v5c0,5.52-4.48,10-10,10h-10c-5.52,0-10-4.48-10-10h0c0-5.52,4.48-10,10-10Z"/>
      <g>
        <path class="cls-15" d="M560,65h15c2.76,0,5,2.24,5,5v5c0,5.52-4.48,10-10,10h-10c-5.52,0-10-4.48-10-10h0c0-5.52,4.48-10,10-10Z"/>
        <g class="cls-5">
          <path class="cls-10" d="M580,70h-20c-2.76,0-5-2.24-5-5h0s25,0,25,0v5Z"/>
        </g>
      </g>
      <path class="cls-10" d="M587.5,85h0c-4.14,0-7.5-3.36-7.5-7.5v-10c0-1.38,1.12-2.5,2.5-2.5h5c1.38,0,2.5,1.12,2.5,2.5v15c0,1.38-1.12,2.5-2.5,2.5Z"/>
      <path class="cls-15" d="M545,85h-21.72c-5.3,0-10.39-2.11-14.14-5.86l-4.14-4.14,4.14-4.14c3.75-3.75,8.84-5.86,14.14-5.86h26.72c2.76,0,5,2.24,5,5v5c0,5.52-4.48,10-10,10Z"/>
      <g class="cls-6">
        <path class="cls-10" d="M545,82.5v-17.51h2.51c2.76,0,4.99,2.25,4.99,5v15.01h-5c-1.38,0-2.5-1.12-2.5-2.5Z"/>
        <path class="cls-10" d="M535,82.5v-17.51h2.51c2.76,0,4.99,2.25,4.99,5v15.01h-5c-1.38,0-2.5-1.12-2.5-2.5Z"/>
        <path class="cls-10" d="M525,82.5v-17.51h2.51c1.38.01,2.49,1.13,2.49,2.51v17.51h-2.5c-1.38,0-2.5-1.12-2.5-2.5Z"/>
        <path class="cls-10" d="M515,82.5v-17.51h2.51c1.38.01,2.49,1.13,2.49,2.51v17.51h-2.5c-1.38,0-2.5-1.12-2.5-2.5Z"/>
        <path class="cls-10" d="M505,80.01v-10.03h2.51c1.38.01,2.49,1.13,2.49,2.51v7.51s-5,.01-5,.01Z"/>
      </g>
      <path class="cls-18" d="M587.5,65h0c1.38,0,2.5,1.12,2.5,2.5v12.5h0c-2.76,0-5-2.24-5-5v-7.5c0-1.38,1.12-2.5,2.5-2.5Z"/>
      <polyline class="cls-8" points="590 67.5 595 67.5 595 80"/>
      <path class="cls-11" d="M570,93.65v-28.65s-14.57,21.31-14.57,21.31c-1.69,2.47.18,5.23,4.42,6.54l6.41,1.97c1.67.51,3.74-.14,3.74-1.17Z"/>
      <rect class="cls-7" x="500" width="100" height="150"/>
    </g>
  </g>
</svg>