<?xml version="1.0" encoding="UTF-8"?>
<svg id="_레이어_2" data-name="레이어 2" xmlns="http://www.w3.org/2000/svg" xmlns:xlink="http://www.w3.org/1999/xlink" viewBox="0 0 135 85">
  <defs>
    <style>
      .cls-1 {
        fill: url(#_무제_그라디언트_26);
      }

      .cls-2 {
        fill: url(#_무제_그라디언트_38);
      }

      .cls-3 {
        fill: none;
      }

      .cls-4 {
        fill: #e07348;
      }

      .cls-5 {
        fill: #202020;
      }

      .cls-6 {
        fill: url(#_무제_그라디언트_38-2);
      }

      .cls-7 {
        fill: url(#_무제_그라디언트_26-2);
      }
    </style>
    <linearGradient id="_무제_그라디언트_38" data-name="무제 그라디언트 38" x1="103.75" y1="15" x2="103.75" y2="10" gradientUnits="userSpaceOnUse">
      <stop offset="0" stop-color="#f0f0e7"/>
      <stop offset=".5" stop-color="#dad093"/>
      <stop offset="1" stop-color="#e07348"/>
    </linearGradient>
    <linearGradient id="_무제_그라디언트_38-2" data-name="무제 그라디언트 38" x1="-1898.75" x2="-1898.75" gradientTransform="translate(-1777.5) rotate(-180) scale(1 -1)" xlink:href="#_무제_그라디언트_38"/>
    <linearGradient id="_무제_그라디언트_26" data-name="무제 그라디언트 26" x1="67.5" y1="85" x2="67.5" y2="10" gradientUnits="userSpaceOnUse">
      <stop offset=".93" stop-color="#f0f0e7"/>
      <stop offset=".97" stop-color="#dad093"/>
      <stop offset="1" stop-color="#e07348"/>
    </linearGradient>
    <linearGradient id="_무제_그라디언트_26-2" data-name="무제 그라디언트 26" x1="27.5" y1="80.64" x2="27.5" xlink:href="#_무제_그라디언트_26"/>
  </defs>
  <g id="_레이어_1-2" data-name="레이어 1">
    <g>
      <path class="cls-5" d="M132.5,25v35c-2.76,0-5-2.24-5-5v20c0,2.25-.75,4.33-2,6,.19.14.37.29.54.46.9.91,1.46,2.16,1.46,3.54h-30c0-1.38.56-2.63,1.46-3.54.17-.17.35-.32.54-.46-1.25-1.67-2-3.75-2-6v-20c0,2.76-2.24,5-5,5V25c0-5.52,4.48-10,10-10v-5c0-5.52,4.48-10,10-10,2.76,0,5.26,1.12,7.07,2.93,1.81,1.81,2.93,4.31,2.93,7.07v5c5.52,0,10,4.48,10,10Z"/>
      <path class="cls-2" d="M102.5,15h0v-5s0,0,0,0c1.38,0,2.5,1.12,2.5,2.5h0c0,1.38-1.12,2.5-2.5,2.5Z"/>
      <path class="cls-6" d="M122.5,15h0v-5s0,0,0,0c-1.38,0-2.5,1.12-2.5,2.5h0c0,1.38,1.12,2.5,2.5,2.5Z"/>
      <rect class="cls-3" x="90" width="45" height="85"/>
    </g>
    <g>
      <path class="cls-5" d="M87.5,25v35c-2.76,0-5-2.24-5-5v-25h-10v-15h-10v15h-10v25c0,2.76-2.24,5-5,5V25c0-5.52,4.48-10,10-10v-5c0-5.52,4.48-10,10-10,2.76,0,5.26,1.12,7.07,2.93,1.81,1.81,2.93,4.31,2.93,7.07v5c5.52,0,10,4.48,10,10Z"/>
      <path class="cls-5" d="M82.5,77.44c0,1.56-.48,3.01-1.29,4.21.8.89,1.29,2.06,1.29,3.35h-30c0-1.29.49-2.46,1.29-3.35-.81-1.2-1.29-2.65-1.29-4.21v-7.44h30v7.44Z"/>
      <path class="cls-1" d="M82.5,20v50c0,8.28-6.72,15-15,15s-15-6.72-15-15V20c0-2.76,2.24-5,5-5v-5c.69,0,1.32.28,1.77.73s.73,1.08.73,1.77.28,1.32.73,1.77c.45.45,1.08.73,1.77.73h10c.69,0,1.32-.28,1.77-.73.45-.45.73-1.08.73-1.77s.28-1.32.73-1.77,1.08-.73,1.77-.73v5c2.76,0,5,2.24,5,5Z"/>
      <polygon class="cls-4" points="62.5 10 67.5 0 72.5 10 67.5 2.5 62.5 10"/>
      <rect class="cls-3" x="45" width="45" height="85"/>
    </g>
    <g>
      <path class="cls-5" d="M42.5,0c-2.76,0-5.26,1.12-7.07,2.93-1.81,1.81-2.93,4.31-2.93,7.07v5h-10c2.76,0,5,2.24,5,5v40c-1.38,0-2.63-.56-3.54-1.46-.9-.91-1.46-2.16-1.46-3.54v20c0,2.76,2.24,5,5,5s5,2.24,5,5H2.5c1.38,0,2.63-.56,3.54-1.46.9-.91,1.46-2.16,1.46-3.54V15c0-4.14,1.68-7.89,4.4-10.6C14.61,1.68,18.36,0,22.5,0h20Z"/>
      <path class="cls-7" d="M37.5,20v45c0,6.34-2.94,11.99-7.55,15.64-.72-.41-1.56-.64-2.45-.64-2.76,0-5-2.24-5-5v-20c0,1.38.56,2.63,1.46,3.54.91.9,2.16,1.46,3.54,1.46V20c0-2.76-2.24-5-5-5h-2.5c-1.38,0-2.5-1.12-2.5-2.5,0-.69.28-1.32.73-1.77s1.08-.73,1.77-.73,1.32.28,1.77.73.73,1.08.73,1.77.28,1.32.73,1.77c.45.45,1.08.73,1.77.73h7.5c2.76,0,5,2.24,5,5Z"/>
      <path class="cls-4" d="M27.5,10c0-5,5-10,15-10-5,0-15,5-15,10Z"/>
      <rect class="cls-3" width="45" height="85"/>
    </g>
  </g>
</svg>