<?xml version="1.0" encoding="UTF-8"?>
<svg id="_레이어_2" data-name="레이어 2" xmlns="http://www.w3.org/2000/svg" xmlns:xlink="http://www.w3.org/1999/xlink" viewBox="0 0 810 320">
  <defs>
    <style>
      .cls-1 {
        fill: gray;
        opacity: .1;
      }

      .cls-2 {
        fill: url(#_무제_그라디언트_40);
      }

      .cls-2, .cls-3, .cls-4, .cls-5, .cls-6, .cls-7 {
        opacity: .8;
      }

      .cls-3 {
        fill: url(#_무제_그라디언트_40-5);
      }

      .cls-4 {
        fill: url(#_무제_그라디언트_40-2);
      }

      .cls-8 {
        opacity: .2;
      }

      .cls-8, .cls-9 {
        fill: #3a2f2b;
      }

      .cls-10, .cls-11 {
        fill: none;
      }

      .cls-12 {
        fill: #f7f3e0;
      }

      .cls-5 {
        fill: url(#_무제_그라디언트_40-4);
      }

      .cls-6 {
        fill: url(#_무제_그라디언트_40-6);
      }

      .cls-11 {
        stroke: #3a2f2b;
        stroke-miterlimit: 10;
      }

      .cls-7 {
        fill: url(#_무제_그라디언트_40-3);
      }

      .cls-13 {
        fill: #f5ff31;
      }

      .cls-14 {
        fill: #e68155;
      }

      .cls-15 {
        fill: #e0c687;
      }
    </style>
    <radialGradient id="_무제_그라디언트_40" data-name="무제 그라디언트 40" cx="27.5" cy="80" fx="27.5" fy="80" r="25" gradientUnits="userSpaceOnUse">
      <stop offset="0" stop-color="#f5ff31"/>
      <stop offset=".11" stop-color="#f5ff31" stop-opacity=".8"/>
      <stop offset=".24" stop-color="#f5ff31" stop-opacity=".59"/>
      <stop offset=".37" stop-color="#f5ff31" stop-opacity=".41"/>
      <stop offset=".5" stop-color="#f5ff31" stop-opacity=".26"/>
      <stop offset=".63" stop-color="#f5ff31" stop-opacity=".15"/>
      <stop offset=".75" stop-color="#f5ff31" stop-opacity=".07"/>
      <stop offset=".88" stop-color="#f5ff31" stop-opacity=".02"/>
      <stop offset="1" stop-color="#f5ff31" stop-opacity="0"/>
    </radialGradient>
    <radialGradient id="_무제_그라디언트_40-2" data-name="무제 그라디언트 40" cx="162.5" cy="80" fx="162.5" fy="80" xlink:href="#_무제_그라디언트_40"/>
    <radialGradient id="_무제_그라디언트_40-3" data-name="무제 그라디언트 40" cx="297.5" fx="297.5" xlink:href="#_무제_그라디언트_40"/>
    <radialGradient id="_무제_그라디언트_40-4" data-name="무제 그라디언트 40" cx="432.5" fx="432.5" xlink:href="#_무제_그라디언트_40"/>
    <radialGradient id="_무제_그라디언트_40-5" data-name="무제 그라디언트 40" cx="567.5" fx="567.5" xlink:href="#_무제_그라디언트_40"/>
    <radialGradient id="_무제_그라디언트_40-6" data-name="무제 그라디언트 40" cx="702.5" fx="702.5" xlink:href="#_무제_그라디언트_40"/>
  </defs>
  <g id="_레이어_1-2" data-name="레이어 1">
    <g>
      <circle class="cls-2" cx="27.5" cy="80" r="25"/>
      <polygon class="cls-14" points="85 75 100 75 100 77.5 87.5 77.5 87.5 82.5 100 82.5 100 85 85 85 85 75"/>
      <path class="cls-9" d="M105,80c0,1.13-.37,2.17-1,3,.61.46,1,1.18,1,2,0,1.38-1.12,2.5-2.5,2.5s-2.5-1.12-2.5-2.5v-2.5h-12.5v-5h12.5v-2.5c0-1.38,1.12-2.5,2.5-2.5s2.5,1.12,2.5,2.5c0,.82-.39,1.54-1,2,.63.83,1,1.87,1,3Z"/>
      <line class="cls-11" x1="102.5" y1="80" x2="130" y2="75"/>
      <line class="cls-11" x1="130" y1="85" x2="102.5" y2="80"/>
      <path class="cls-1" d="M95,90h-7.5c-1.38,0-2.5-1.12-2.5-2.5v-15c0-1.38,1.12-2.5,2.5-2.5h7.5c5.52,0,10,4.48,10,10h0c0,5.52-4.48,10-10,10Z"/>
      <path class="cls-15" d="M17.5,79h67.5v2H17.5c0,1.94.78,3.68,2.05,4.95,1.27,1.27,3.01,2.05,4.95,2.05h60.5c0,1.1-.9,2-2,2H25c-5.52,0-10-4.48-10-10s4.48-10,10-10h58c1.1,0,2,.9,2,2H24.5c-1.94,0-3.68.78-4.95,2.05s-2.05,3.01-2.05,4.95Z"/>
      <path class="cls-9" d="M85,72v7H17.5c0-1.94.78-3.68,2.05-4.95s3.01-2.05,4.95-2.05h60.5Z"/>
      <path class="cls-9" d="M85,81v7H24.5c-1.94,0-3.68-.78-4.95-2.05-1.27-1.27-2.05-3.01-2.05-4.95h67.5Z"/>
      <rect class="cls-10" width="135" height="160"/>
    </g>
    <g>
      <circle class="cls-4" cx="162.5" cy="80" r="25"/>
      <path class="cls-14" d="M220,75h15v2.5h-12.5v5h12.5v2.5h-15v2.17c0,1.5-1.32,2.67-2.81,2.48l-15-1.88c-1.25-.15-2.19-1.22-2.19-2.48v-10.58c0-1.26.94-2.33,2.19-2.48l15-1.88c1.49-.19,2.81.98,2.81,2.48v2.17Z"/>
      <path class="cls-13" d="M175,75v10l-5,2.5v-2.5l-5,2.5v-2.5h-5c-2.76,0-5-2.24-5-5,0-1.38.56-2.63,1.46-3.54.91-.9,2.16-1.46,3.54-1.46h5v-2.5l5,2.5v-2.5l5,2.5Z"/>
      <path class="cls-9" d="M240,80c0,1.13-.37,2.17-1,3,.61.46,1,1.18,1,2,0,1.38-1.12,2.5-2.5,2.5s-2.5-1.12-2.5-2.5v-2.5h-12.5v-5h12.5v-2.5c0-1.38,1.12-2.5,2.5-2.5s2.5,1.12,2.5,2.5c0,.82-.39,1.54-1,2,.63.83,1,1.87,1,3Z"/>
      <line class="cls-11" x1="237.5" y1="80" x2="265" y2="75"/>
      <line class="cls-11" x1="265" y1="85" x2="237.5" y2="80"/>
      <path class="cls-9" d="M200,75v10l-5,2.5v-2.5l-5,2.5v-2.5l-5,2.5v-2.5l-5,2.5v-2.5l-5,2.5v-5l-5,2.5v-2.5l-5,2.5v-2.5l-5,2.5v-3.75h-4.84c-.11-.4-.16-.82-.16-1.25s.05-.85.16-1.25h4.84v-3.75l5,2.5v-2.5l5,2.5v-2.5l5,2.5v-5l5,2.5v-2.5l5,2.5v-2.5l5,2.5v-2.5l5,2.5v-2.5l5,2.5Z"/>
      <path class="cls-8" d="M191.17,15h.49c4.83,0,8.97,3.46,9.84,8.21l8.35,45.9c.08.42-.3.77-.71.67l-8.49-2.12c-6.38-1.59-11.07-7.02-11.73-13.57l-3.3-32.95c-.33-3.29,2.25-6.14,5.55-6.14Z"/>
      <path class="cls-1" d="M230,90h-7.5c-1.38,0-2.5-1.12-2.5-2.5v-15c0-1.38,1.12-2.5,2.5-2.5h7.5c5.52,0,10,4.48,10,10h0c0,5.52-4.48,10-10,10Z"/>
      <path class="cls-8" d="M190.52,145h1.13c4.83,0,8.97-3.46,9.84-8.21l8.51-46.79-9.76,2.44c-6.14,1.54-10.66,6.76-11.29,13.06l-3.4,34c-.29,2.94,2.02,5.5,4.98,5.5Z"/>
      <rect class="cls-10" x="135" y="0" width="135" height="160"/>
      <path class="cls-15" d="M220,55.35v13.58c0,.59-.48,1.07-1.07,1.07h-.93v-15.54c0-2.07-1.68-3.75-3.74-3.75h-3.26v19.29h-1v-20h4.65c2.96,0,5.35,2.39,5.35,5.35Z"/>
      <path class="cls-15" d="M220,91.07v13.58c0,2.96-2.39,5.35-5.35,5.35h-4.65v-20h1v19.29h3.26c2.06,0,3.74-1.68,3.74-3.75v-15.54h.93c.59,0,1.07.48,1.07,1.07Z"/>
      <path class="cls-9" d="M218,54.46v15.54h-7v-19.29h3.26c2.06,0,3.74,1.68,3.74,3.75Z"/>
      <path class="cls-9" d="M218,90v15.54c0,2.07-1.68,3.75-3.74,3.75h-3.26v-19.29h7Z"/>
    </g>
    <g>
      <circle class="cls-7" cx="297.5" cy="80" r="25"/>
      <path class="cls-14" d="M355,75h15v2.5h-12.5v5h12.5v2.5h-15v2.17c0,1.5-1.32,2.67-2.81,2.48l-15-1.88c-1.25-.15-2.19-1.22-2.19-2.48v-10.58c0-1.26.94-2.33,2.19-2.48l15-1.88c1.49-.19,2.81.98,2.81,2.48v2.17Z"/>
      <path class="cls-13" d="M310,75v10l-5,2.5v-2.5l-5,2.5v-2.5h-5c-2.76,0-5-2.24-5-5,0-1.38.56-2.63,1.46-3.54.91-.9,2.16-1.46,3.54-1.46h5v-2.5l5,2.5v-2.5l5,2.5Z"/>
      <path class="cls-9" d="M335,75v10l-5,2.5v-2.5l-5,2.5v-2.5l-5,2.5v-2.5l-5,2.5v-2.5l-5,2.5v-5l-5,2.5v-2.5l-5,2.5v-2.5l-5,2.5v-3.75h-4.84c-.11-.4-.16-.82-.16-1.25s.05-.85.16-1.25h4.84v-3.75l5,2.5v-2.5l5,2.5v-2.5l5,2.5v-5l5,2.5v-2.5l5,2.5v-2.5l5,2.5v-2.5l5,2.5v-2.5l5,2.5Z"/>
      <path class="cls-8" d="M326.17,54.29h.49c4.83,0,8.97.99,9.84,2.35l8.35,13.11c.08.12-.3.22-.71.19l-8.49-.61c-6.38-.46-11.07-2.01-11.73-3.88l-3.3-9.42c-.33-.94,2.25-1.75,5.55-1.75Z"/>
      <path class="cls-15" d="M355,55.35v13.58c0,.59-.48,1.07-1.07,1.07h-.93v-15.54c0-2.07-1.68-3.75-3.74-3.75h-3.26v19.29h-1v-20h4.65c2.96,0,5.35,2.39,5.35,5.35Z"/>
      <path class="cls-15" d="M355,91.07v13.58c0,2.96-2.39,5.35-5.35,5.35h-4.65v-20h1v19.29h3.26c2.06,0,3.74-1.68,3.74-3.75v-15.54h.93c.59,0,1.07.48,1.07,1.07Z"/>
      <path class="cls-9" d="M353,54.46v15.54h-7v-19.29h3.26c2.06,0,3.74,1.68,3.74,3.75Z"/>
      <path class="cls-9" d="M353,90v15.54c0,2.07-1.68,3.75-3.74,3.75h-3.26v-19.29h7Z"/>
      <path class="cls-8" d="M325.52,105.71h1.13c4.83,0,8.97-.99,9.84-2.35l8.51-13.37-9.76.7c-6.14.44-10.66,1.93-11.29,3.73l-3.4,9.71c-.29.84,2.02,1.57,4.98,1.57Z"/>
      <path class="cls-9" d="M375,80c0,1.13-.37,2.17-1,3,.61.46,1,1.18,1,2,0,1.38-1.12,2.5-2.5,2.5s-2.5-1.12-2.5-2.5v-2.5h-12.5v-5h12.5v-2.5c0-1.38,1.12-2.5,2.5-2.5s2.5,1.12,2.5,2.5c0,.82-.39,1.54-1,2,.63.83,1,1.87,1,3Z"/>
      <line class="cls-11" x1="372.5" y1="80" x2="400" y2="75"/>
      <line class="cls-11" x1="400" y1="85" x2="372.5" y2="80"/>
      <path class="cls-1" d="M365,90h-7.5c-1.38,0-2.5-1.12-2.5-2.5v-15c0-1.38,1.12-2.5,2.5-2.5h7.5c5.52,0,10,4.48,10,10h0c0,5.52-4.48,10-10,10Z"/>
      <rect class="cls-10" x="270" width="135" height="160"/>
    </g>
    <g>
      <circle class="cls-5" cx="432.5" cy="80" r="25"/>
      <rect class="cls-14" x="470" y="80" width="37.5" height="5"/>
      <polygon class="cls-9" points="470 80 470 82.5 465 85 465 82.5 460 85 460 82.5 455 85 455 82.5 450 85 450 82.5 445 85 445 80 470 80"/>
      <line class="cls-11" x1="510" y1="80" x2="535" y2="75"/>
      <polygon class="cls-9" points="445 80 440 80 440 75 445 77.5 445 80"/>
      <polygon class="cls-9" points="440 80 435 80 435 75 440 77.5 440 80"/>
      <path class="cls-9" d="M435,80h-10c0-1.38,1.12-2.5,2.5-2.5h7.5v2.5Z"/>
      <path class="cls-13" d="M445,80v2.5l-5,2.5v-2.5l-5,2.5v-2.5h-7.5c-.69,0-1.32-.28-1.77-.73-.45-.45-.73-1.08-.73-1.77h20Z"/>
      <path class="cls-15" d="M490,78.5v1.5h-70c0-4.14,3.36-7.5,7.5-7.5h1c-1.66,0-3.16.67-4.24,1.76-1.09,1.08-1.76,2.58-1.76,4.24h67.5Z"/>
      <path class="cls-9" d="M512.5,80c0,.1-.01.21-.02.31-.07,1.26-.61,2.39-1.44,3.23-.91.9-2.16,1.46-3.54,1.46v-5h-17.5v-1.5h-67.5c0-1.66.67-3.16,1.76-4.24,1.08-1.09,2.58-1.76,4.24-1.76h59c1.38,0,2.5,1.12,2.5,2.5v2.5h20c1.38,0,2.5,1.12,2.5,2.5Z"/>
      <path class="cls-1" d="M510,80h-20v-5c0-1.38,1.12-2.5,2.5-2.5h10c4.14,0,7.5,3.36,7.5,7.5h0Z"/>
      <rect class="cls-10" x="405" width="135" height="160"/>
    </g>
    <g>
      <circle class="cls-3" cx="567.5" cy="80" r="25"/>
      <path class="cls-9" d="M647.5,80c0,.1-.01.21-.02.31-.07,1.26-.61,2.39-1.44,3.23-.91.9-2.16,1.46-3.54,1.46v-5h-17.5v-2.5h20c1.38,0,2.5,1.12,2.5,2.5Z"/>
      <line class="cls-11" x1="645" y1="80" x2="670" y2="75"/>
      <path class="cls-14" d="M642.5,80v5h-37.5v-10l17.19-2.15c1.49-.19,2.81.98,2.81,2.48v4.67h17.5Z"/>
      <path class="cls-9" d="M605,77.5v5l-5,2.5v-2.5l-5,2.5v-2.5l-5,2.5v-2.5l-5,2.5v-2.5l-5,2.5v-5h-20c0-.69.28-1.32.73-1.77s1.08-.73,1.77-.73h7.5v-2.5l5,2.5v-2.5l5,2.5v-2.5l5,2.5v-2.5l5,2.5v-2.5l5,2.5v-2.5l5,2.5v-2.5l5,2.5Z"/>
      <path class="cls-13" d="M580,80v2.5l-5,2.5v-2.5l-5,2.5v-2.5h-7.5c-.69,0-1.32-.28-1.77-.73-.45-.45-.73-1.08-.73-1.77h20Z"/>
      <path class="cls-1" d="M645,80h-20v-5c0-1.38,1.12-2.5,2.5-2.5h10c4.14,0,7.5,3.36,7.5,7.5h0Z"/>
      <path class="cls-8" d="M596.17,20h.49c4.83,0,8.97,3.46,9.84,8.21l8.35,45.9c.08.42-.3.77-.71.67l-8.49-2.12c-6.38-1.59-11.07-7.02-11.73-13.57l-3.3-32.95c-.33-3.29,2.25-6.14,5.55-6.14Z"/>
      <rect class="cls-10" x="540" width="135" height="160"/>
      <g>
        <path class="cls-15" d="M624.54,61.71c-.49-.72-1.32-1.2-2.25-1.2h-3.29v13.82h-1.5v-14.33h4.11c1.26,0,2.36.69,2.93,1.71Z"/>
        <path class="cls-9" d="M617.81,64.42h9.97c.62,0,1.13.51,1.13,1.13v4.87h-13.82v-3.29c0-1.5,1.22-2.71,2.71-2.71Z" transform="translate(689.42 -554.58) rotate(90)"/>
      </g>
    </g>
    <g>
      <circle class="cls-6" cx="702.5" cy="80" r="25"/>
      <path class="cls-14" d="M777.5,80v5h-37.5v-10l17.19-2.15c1.49-.19,2.81.98,2.81,2.48v4.67h17.5Z"/>
      <path class="cls-9" d="M782.5,80c0,.1-.01.21-.02.31-.07,1.26-.61,2.39-1.44,3.23-.91.9-2.16,1.46-3.54,1.46v-5h-17.5v-2.5h20c1.38,0,2.5,1.12,2.5,2.5Z"/>
      <line class="cls-11" x1="780" y1="80" x2="805" y2="75"/>
      <path class="cls-9" d="M740,77.5v5l-5,2.5v-2.5l-5,2.5v-2.5l-5,2.5v-2.5l-5,2.5v-2.5l-5,2.5v-5h-20c0-.69.28-1.32.73-1.77s1.08-.73,1.77-.73h7.5v-2.5l5,2.5v-2.5l5,2.5v-2.5l5,2.5v-2.5l5,2.5v-2.5l5,2.5v-2.5l5,2.5v-2.5l5,2.5Z"/>
      <path class="cls-13" d="M715,80v2.5l-5,2.5v-2.5l-5,2.5v-2.5h-7.5c-.69,0-1.32-.28-1.77-.73-.45-.45-.73-1.08-.73-1.77h20Z"/>
      <path class="cls-15" d="M759.54,61.71c-.49-.72-1.32-1.2-2.25-1.2h-3.29v13.82h-1.5v-14.33h4.11c1.26,0,2.36.69,2.93,1.71Z"/>
      <path class="cls-9" d="M752.81,64.42h9.97c.62,0,1.13.51,1.13,1.13v4.87h-13.82v-3.29c0-1.5,1.22-2.71,2.71-2.71Z" transform="translate(824.42 -689.58) rotate(90)"/>
      <path class="cls-1" d="M780,80h-20v-5c0-1.38,1.12-2.5,2.5-2.5h10c4.14,0,7.5,3.36,7.5,7.5h0Z"/>
      <path class="cls-8" d="M731.17,63.58h.49c4.83,0,8.97.71,9.84,1.68l8.35,9.4c.08.09-.3.16-.71.14l-8.49-.43c-6.38-.33-11.07-1.44-11.73-2.78l-3.3-6.75c-.33-.67,2.25-1.26,5.55-1.26Z"/>
      <rect class="cls-10" x="675" width="135" height="160"/>
    </g>
    <g>
      <polygon class="cls-14" points="85 235 100 235 100 237.5 87.5 237.5 87.5 242.5 100 242.5 100 245 85 245 85 235"/>
      <path class="cls-9" d="M105,240c0,1.13-.37,2.17-1,3,.61.46,1,1.18,1,2,0,1.38-1.12,2.5-2.5,2.5s-2.5-1.12-2.5-2.5v-2.5h-12.5v-5h12.5v-2.5c0-1.38,1.12-2.5,2.5-2.5s2.5,1.12,2.5,2.5c0,.82-.39,1.54-1,2,.63.83,1,1.87,1,3Z"/>
      <line class="cls-11" x1="102.5" y1="240" x2="130" y2="235"/>
      <line class="cls-11" x1="130" y1="245" x2="102.5" y2="240"/>
      <path class="cls-1" d="M95,250h-7.5c-1.38,0-2.5-1.12-2.5-2.5v-15c0-1.38,1.12-2.5,2.5-2.5h7.5c5.52,0,10,4.48,10,10h0c0,5.52-4.48,10-10,10Z"/>
      <path class="cls-15" d="M17.5,239h67.5v2H17.5c0,1.94.78,3.68,2.05,4.95,1.27,1.27,3.01,2.05,4.95,2.05h60.5c0,1.1-.9,2-2,2H25c-5.52,0-10-4.48-10-10s4.48-10,10-10h58c1.1,0,2,.9,2,2H24.5c-1.94,0-3.68.78-4.95,2.05s-2.05,3.01-2.05,4.95Z"/>
      <path class="cls-9" d="M85,232v7H17.5c0-1.94.78-3.68,2.05-4.95s3.01-2.05,4.95-2.05h60.5Z"/>
      <path class="cls-9" d="M85,241v7H24.5c-1.94,0-3.68-.78-4.95-2.05-1.27-1.27-2.05-3.01-2.05-4.95h67.5Z"/>
      <rect class="cls-10" y="160" width="135" height="160"/>
    </g>
    <g>
      <path class="cls-14" d="M220,235h15v2.5h-12.5v5h12.5v2.5h-15v2.17c0,1.5-1.32,2.67-2.81,2.48l-15-1.88c-1.25-.15-2.19-1.22-2.19-2.48v-10.58c0-1.26.94-2.33,2.19-2.48l15-1.88c1.49-.19,2.81.98,2.81,2.48v2.17Z"/>
      <path class="cls-12" d="M175,235v10l-5,2.5v-2.5l-5,2.5v-2.5h-5c-2.76,0-5-2.24-5-5,0-1.38.56-2.63,1.46-3.54.91-.9,2.16-1.46,3.54-1.46h5v-2.5l5,2.5v-2.5l5,2.5Z"/>
      <path class="cls-9" d="M240,240c0,1.13-.37,2.17-1,3,.61.46,1,1.18,1,2,0,1.38-1.12,2.5-2.5,2.5s-2.5-1.12-2.5-2.5v-2.5h-12.5v-5h12.5v-2.5c0-1.38,1.12-2.5,2.5-2.5s2.5,1.12,2.5,2.5c0,.82-.39,1.54-1,2,.63.83,1,1.87,1,3Z"/>
      <line class="cls-11" x1="237.5" y1="240" x2="265" y2="235"/>
      <line class="cls-11" x1="265" y1="245" x2="237.5" y2="240"/>
      <path class="cls-9" d="M200,235v10l-5,2.5v-2.5l-5,2.5v-2.5l-5,2.5v-2.5l-5,2.5v-2.5l-5,2.5v-5l-5,2.5v-2.5l-5,2.5v-2.5l-5,2.5v-3.75h-4.84c-.11-.4-.16-.82-.16-1.25s.05-.85.16-1.25h4.84v-3.75l5,2.5v-2.5l5,2.5v-2.5l5,2.5v-5l5,2.5v-2.5l5,2.5v-2.5l5,2.5v-2.5l5,2.5v-2.5l5,2.5Z"/>
      <path class="cls-8" d="M191.17,175h.49c4.83,0,8.97,3.46,9.84,8.21l8.35,45.9c.08.42-.3.77-.71.67l-8.49-2.12c-6.38-1.59-11.07-7.02-11.73-13.57l-3.3-32.95c-.33-3.29,2.25-6.14,5.55-6.14Z"/>
      <path class="cls-1" d="M230,250h-7.5c-1.38,0-2.5-1.12-2.5-2.5v-15c0-1.38,1.12-2.5,2.5-2.5h7.5c5.52,0,10,4.48,10,10h0c0,5.52-4.48,10-10,10Z"/>
      <path class="cls-8" d="M190.52,305h1.13c4.83,0,8.97-3.46,9.84-8.21l8.51-46.79-9.76,2.44c-6.14,1.54-10.66,6.76-11.29,13.06l-3.4,34c-.29,2.94,2.02,5.5,4.98,5.5Z"/>
      <rect class="cls-10" x="135" y="160" width="135" height="160"/>
      <path class="cls-15" d="M220,215.35v13.58c0,.59-.48,1.07-1.07,1.07h-.93v-15.54c0-2.07-1.68-3.75-3.74-3.75h-3.26v19.29h-1v-20h4.65c2.96,0,5.35,2.39,5.35,5.35Z"/>
      <path class="cls-15" d="M220,251.07v13.58c0,2.96-2.39,5.35-5.35,5.35h-4.65v-20h1v19.29h3.26c2.06,0,3.74-1.68,3.74-3.75v-15.54h.93c.59,0,1.07.48,1.07,1.07Z"/>
      <path class="cls-9" d="M218,214.46v15.54h-7v-19.29h3.26c2.06,0,3.74,1.68,3.74,3.75Z"/>
      <path class="cls-9" d="M218,250v15.54c0,2.07-1.68,3.75-3.74,3.75h-3.26v-19.29h7Z"/>
    </g>
    <g>
      <path class="cls-14" d="M355,235h15v2.5h-12.5v5h12.5v2.5h-15v2.17c0,1.5-1.32,2.67-2.81,2.48l-15-1.88c-1.25-.15-2.19-1.22-2.19-2.48v-10.58c0-1.26.94-2.33,2.19-2.48l15-1.88c1.49-.19,2.81.98,2.81,2.48v2.17Z"/>
      <path class="cls-12" d="M310,235v10l-5,2.5v-2.5l-5,2.5v-2.5h-5c-2.76,0-5-2.24-5-5,0-1.38.56-2.63,1.46-3.54.91-.9,2.16-1.46,3.54-1.46h5v-2.5l5,2.5v-2.5l5,2.5Z"/>
      <path class="cls-9" d="M335,235v10l-5,2.5v-2.5l-5,2.5v-2.5l-5,2.5v-2.5l-5,2.5v-2.5l-5,2.5v-5l-5,2.5v-2.5l-5,2.5v-2.5l-5,2.5v-3.75h-4.84c-.11-.4-.16-.82-.16-1.25s.05-.85.16-1.25h4.84v-3.75l5,2.5v-2.5l5,2.5v-2.5l5,2.5v-5l5,2.5v-2.5l5,2.5v-2.5l5,2.5v-2.5l5,2.5v-2.5l5,2.5Z"/>
      <path class="cls-8" d="M326.17,214.29h.49c4.83,0,8.97.99,9.84,2.35l8.35,13.11c.08.12-.3.22-.71.19l-8.49-.61c-6.38-.46-11.07-2.01-11.73-3.88l-3.3-9.42c-.33-.94,2.25-1.75,5.55-1.75Z"/>
      <path class="cls-15" d="M355,215.35v13.58c0,.59-.48,1.07-1.07,1.07h-.93v-15.54c0-2.07-1.68-3.75-3.74-3.75h-3.26v19.29h-1v-20h4.65c2.96,0,5.35,2.39,5.35,5.35Z"/>
      <path class="cls-15" d="M355,251.07v13.58c0,2.96-2.39,5.35-5.35,5.35h-4.65v-20h1v19.29h3.26c2.06,0,3.74-1.68,3.74-3.75v-15.54h.93c.59,0,1.07.48,1.07,1.07Z"/>
      <path class="cls-9" d="M353,214.46v15.54h-7v-19.29h3.26c2.06,0,3.74,1.68,3.74,3.75Z"/>
      <path class="cls-9" d="M353,250v15.54c0,2.07-1.68,3.75-3.74,3.75h-3.26v-19.29h7Z"/>
      <path class="cls-8" d="M325.52,265.71h1.13c4.83,0,8.97-.99,9.84-2.35l8.51-13.37-9.76.7c-6.14.44-10.66,1.93-11.29,3.73l-3.4,9.71c-.29.84,2.02,1.57,4.98,1.57Z"/>
      <path class="cls-9" d="M375,240c0,1.13-.37,2.17-1,3,.61.46,1,1.18,1,2,0,1.38-1.12,2.5-2.5,2.5s-2.5-1.12-2.5-2.5v-2.5h-12.5v-5h12.5v-2.5c0-1.38,1.12-2.5,2.5-2.5s2.5,1.12,2.5,2.5c0,.82-.39,1.54-1,2,.63.83,1,1.87,1,3Z"/>
      <line class="cls-11" x1="372.5" y1="240" x2="400" y2="235"/>
      <line class="cls-11" x1="400" y1="245" x2="372.5" y2="240"/>
      <path class="cls-1" d="M365,250h-7.5c-1.38,0-2.5-1.12-2.5-2.5v-15c0-1.38,1.12-2.5,2.5-2.5h7.5c5.52,0,10,4.48,10,10h0c0,5.52-4.48,10-10,10Z"/>
      <rect class="cls-10" x="270" y="160" width="135" height="160"/>
    </g>
    <g>
      <rect class="cls-14" x="470" y="240" width="37.5" height="5"/>
      <polygon class="cls-9" points="470 240 470 242.5 465 245 465 242.5 460 245 460 242.5 455 245 455 242.5 450 245 450 242.5 445 245 445 240 470 240"/>
      <line class="cls-11" x1="510" y1="240" x2="535" y2="235"/>
      <polygon class="cls-9" points="445 240 440 240 440 235 445 237.5 445 240"/>
      <polygon class="cls-9" points="440 240 435 240 435 235 440 237.5 440 240"/>
      <path class="cls-9" d="M435,240h-10c0-1.38,1.12-2.5,2.5-2.5h7.5v2.5Z"/>
      <path class="cls-12" d="M445,240v2.5l-5,2.5v-2.5l-5,2.5v-2.5h-7.5c-.69,0-1.32-.28-1.77-.73-.45-.45-.73-1.08-.73-1.77h20Z"/>
      <path class="cls-15" d="M490,238.5v1.5h-70c0-4.14,3.36-7.5,7.5-7.5h1c-1.66,0-3.16.67-4.24,1.76-1.09,1.08-1.76,2.58-1.76,4.24h67.5Z"/>
      <path class="cls-9" d="M512.5,240c0,.1-.01.21-.02.31-.07,1.26-.61,2.39-1.44,3.23-.91.9-2.16,1.46-3.54,1.46v-5h-17.5v-1.5h-67.5c0-1.66.67-3.16,1.76-4.24,1.08-1.09,2.58-1.76,4.24-1.76h59c1.38,0,2.5,1.12,2.5,2.5v2.5h20c1.38,0,2.5,1.12,2.5,2.5Z"/>
      <path class="cls-1" d="M510,240h-20v-5c0-1.38,1.12-2.5,2.5-2.5h10c4.14,0,7.5,3.36,7.5,7.5h0Z"/>
      <rect class="cls-10" x="405" y="160" width="135" height="160"/>
    </g>
    <g>
      <path class="cls-9" d="M647.5,240c0,.1-.01.21-.02.31-.07,1.26-.61,2.39-1.44,3.23-.91.9-2.16,1.46-3.54,1.46v-5h-17.5v-2.5h20c1.38,0,2.5,1.12,2.5,2.5Z"/>
      <line class="cls-11" x1="645" y1="240" x2="670" y2="235"/>
      <path class="cls-14" d="M642.5,240v5h-37.5v-10l17.19-2.15c1.49-.19,2.81.98,2.81,2.48v4.67h17.5Z"/>
      <path class="cls-9" d="M605,237.5v5l-5,2.5v-2.5l-5,2.5v-2.5l-5,2.5v-2.5l-5,2.5v-2.5l-5,2.5v-5h-20c0-.69.28-1.32.73-1.77s1.08-.73,1.77-.73h7.5v-2.5l5,2.5v-2.5l5,2.5v-2.5l5,2.5v-2.5l5,2.5v-2.5l5,2.5v-2.5l5,2.5v-2.5l5,2.5Z"/>
      <path class="cls-12" d="M580,240v2.5l-5,2.5v-2.5l-5,2.5v-2.5h-7.5c-.69,0-1.32-.28-1.77-.73-.45-.45-.73-1.08-.73-1.77h20Z"/>
      <path class="cls-1" d="M645,240h-20v-5c0-1.38,1.12-2.5,2.5-2.5h10c4.14,0,7.5,3.36,7.5,7.5h0Z"/>
      <path class="cls-8" d="M596.17,180h.49c4.83,0,8.97,3.46,9.84,8.21l8.35,45.9c.08.42-.3.77-.71.67l-8.49-2.12c-6.38-1.59-11.07-7.02-11.73-13.57l-3.3-32.95c-.33-3.29,2.25-6.14,5.55-6.14Z"/>
      <rect class="cls-10" x="540" y="160" width="135" height="160"/>
      <g>
        <path class="cls-15" d="M624.54,221.71c-.49-.72-1.32-1.2-2.25-1.2h-3.29v13.82h-1.5v-14.33h4.11c1.26,0,2.36.69,2.93,1.71Z"/>
        <path class="cls-9" d="M617.81,224.42h9.97c.62,0,1.13.51,1.13,1.13v4.87h-13.82v-3.29c0-1.5,1.22-2.71,2.71-2.71Z" transform="translate(849.42 -394.58) rotate(90)"/>
      </g>
    </g>
    <g>
      <path class="cls-14" d="M777.5,240v5h-37.5v-10l17.19-2.15c1.49-.19,2.81.98,2.81,2.48v4.67h17.5Z"/>
      <path class="cls-9" d="M782.5,240c0,.1-.01.21-.02.31-.07,1.26-.61,2.39-1.44,3.23-.91.9-2.16,1.46-3.54,1.46v-5h-17.5v-2.5h20c1.38,0,2.5,1.12,2.5,2.5Z"/>
      <line class="cls-11" x1="780" y1="240" x2="805" y2="235"/>
      <path class="cls-9" d="M740,237.5v5l-5,2.5v-2.5l-5,2.5v-2.5l-5,2.5v-2.5l-5,2.5v-2.5l-5,2.5v-5h-20c0-.69.28-1.32.73-1.77s1.08-.73,1.77-.73h7.5v-2.5l5,2.5v-2.5l5,2.5v-2.5l5,2.5v-2.5l5,2.5v-2.5l5,2.5v-2.5l5,2.5v-2.5l5,2.5Z"/>
      <path class="cls-12" d="M715,240v2.5l-5,2.5v-2.5l-5,2.5v-2.5h-7.5c-.69,0-1.32-.28-1.77-.73-.45-.45-.73-1.08-.73-1.77h20Z"/>
      <path class="cls-15" d="M759.54,221.71c-.49-.72-1.32-1.2-2.25-1.2h-3.29v13.82h-1.5v-14.33h4.11c1.26,0,2.36.69,2.93,1.71Z"/>
      <path class="cls-9" d="M752.81,224.42h9.97c.62,0,1.13.51,1.13,1.13v4.87h-13.82v-3.29c0-1.5,1.22-2.71,2.71-2.71Z" transform="translate(984.42 -529.58) rotate(90)"/>
      <path class="cls-1" d="M780,240h-20v-5c0-1.38,1.12-2.5,2.5-2.5h10c4.14,0,7.5,3.36,7.5,7.5h0Z"/>
      <path class="cls-8" d="M731.17,223.58h.49c4.83,0,8.97.71,9.84,1.68l8.35,9.4c.08.09-.3.16-.71.14l-8.49-.43c-6.38-.33-11.07-1.44-11.73-2.78l-3.3-6.75c-.33-.67,2.25-1.26,5.55-1.26Z"/>
      <rect class="cls-10" x="675" y="160" width="135" height="160"/>
    </g>
  </g>
</svg>