<?xml version="1.0" encoding="UTF-8"?>
<svg id="_레이어_2" data-name="레이어 2" xmlns="http://www.w3.org/2000/svg" viewBox="0 0 190 200">
  <defs>
    <style>
      .cls-1 {
        fill: #edc6ad;
      }

      .cls-2, .cls-3, .cls-4 {
        fill: none;
      }

      .cls-3 {
        stroke-linejoin: round;
      }

      .cls-3, .cls-4 {
        stroke: #877261;
        stroke-linecap: round;
        stroke-width: 2.5px;
      }

      .cls-5 {
        fill: #877261;
      }

      .cls-4 {
        stroke-miterlimit: 10;
      }
    </style>
  </defs>
  <g id="_레이어_1-2" data-name="레이어 1">
    <g>
      <polygon class="cls-5" points="0 105 25 100 25 105 0 105"/>
      <path class="cls-1" d="M70.46,81.5c0,6.67,1.64,12.97,4.53,18.5H20.51c15.18,0,27.5-12.31,27.5-27.5,0-4.5-1.08-8.75-3.01-12.5h.01c9.07-5.77,15.09-15.9,15.09-27.45,0-.85-.03-1.7-.09-2.54h-.01v-.02c4.42-3.17,7.29-8.35,7.29-14.21,0-3.62-1.1-6.99-2.99-9.78,7.71,11.24,12.22,24.85,12.22,39.51,0,7.64-1.22,14.99-3.49,21.87-.28.72-.53,1.46-.76,2.2-.01.02-.02.04-.02.05-.84,2.7-1.4,5.52-1.64,8.43-.1,1.13-.15,2.28-.15,3.44Z"/>
      <line class="cls-4" x1="45" y1="60" x2="80" y2="60"/>
      <path class="cls-4" d="M60,30h0c3.3,3.3,5.89,7.23,7.63,11.57l7.37,18.43"/>
      <path class="cls-3" d="M64.3,6c7.71,11.24,12.22,24.85,12.22,39.51,0,15.76-5.21,30.31-14.01,42.01l12.48,12.48"/>
      <polygon class="cls-5" points="90 100 90 100 95 107.5 95 112.5 80 115 80 100 90 100"/>
      <circle cx="85" cy="107.5" r="2.5"/>
      <path class="cls-5" d="M90,90h0v10h-10c0-5.52,4.48-10,10-10Z"/>
      <polygon class="cls-1" points="20 105 5 105 10 100 20 100 20 105"/>
      <polygon class="cls-5" points="5 100 80 100 80 115 15 105 5 100"/>
      <rect class="cls-2" width="95" height="200"/>
    </g>
    <g>
      <polygon class="cls-5" points="95 105 120 100 120 105 95 105"/>
      <polygon class="cls-5" points="185 100 185 100 190 107.5 190 112.5 175 115 175 100 185 100"/>
      <circle cx="180" cy="107.5" r="2.5"/>
      <polygon class="cls-1" points="115 105 100 105 105 100 115 100 115 105"/>
      <polygon class="cls-5" points="100 100 175 100 175 115 110 105 100 100"/>
      <path class="cls-5" d="M185,90h0v10h-10c0-5.52,4.48-10,10-10Z"/>
      <path class="cls-1" d="M165.46,118.5c0-6.67,1.64-12.97,4.53-18.5h-54.48c15.18,0,27.5,12.31,27.5,27.5,0,4.5-1.08,8.75-3.01,12.5h.01c9.07,5.77,15.09,15.9,15.09,27.45,0,.85-.03,1.7-.09,2.54h-.01v.02c4.42,3.17,7.29,8.35,7.29,14.21,0,3.62-1.1,6.99-2.99,9.78,7.71-11.24,12.22-24.85,12.22-39.51,0-7.64-1.22-14.99-3.49-21.87-.28-.72-.53-1.46-.76-2.2-.01-.02-.02-.04-.02-.05-.84-2.7-1.4-5.52-1.64-8.43-.1-1.13-.15-2.28-.15-3.44Z"/>
      <line class="cls-4" x1="140" y1="140" x2="175" y2="140"/>
      <path class="cls-4" d="M155,170h0c3.3-3.3,5.89-7.23,7.63-11.57l7.37-18.43"/>
      <path class="cls-3" d="M159.3,194c7.71-11.24,12.22-24.85,12.22-39.51,0-15.76-5.21-30.31-14.01-42.01l12.48-12.48"/>
      <rect class="cls-2" x="95" width="95" height="200"/>
    </g>
  </g>
</svg>