<?xml version="1.0" encoding="UTF-8"?>
<svg id="_레이어_2" data-name="레이어 2" xmlns="http://www.w3.org/2000/svg" viewBox="0 0 720 320">
  <defs>
    <style>
      .cls-1 {
        fill: gray;
        opacity: .1;
      }

      .cls-2 {
        opacity: .2;
      }

      .cls-2, .cls-3 {
        fill: #3a2f2b;
      }

      .cls-4, .cls-5 {
        fill: none;
      }

      .cls-6 {
        fill: #f7f3e0;
      }

      .cls-5 {
        stroke: #3a2f2b;
        stroke-miterlimit: 10;
      }

      .cls-7 {
        fill: #f5ff31;
      }

      .cls-8 {
        fill: #e68155;
      }

      .cls-9 {
        fill: #e0c687;
      }
    </style>
  </defs>
  <g id="_레이어_1-2" data-name="레이어 1">
    <g>
      <path class="cls-8" d="M172.19,87.77l15,1.87c1.49.19,2.81-.98,2.81-2.48v-2.17h15c2.76,0,5-2.24,5-5h0c0-2.76-2.24-5-5-5h-15v-2.17c0-1.5-1.32-2.67-2.81-2.48l-15,1.87c-1.25.16-2.19,1.22-2.19,2.48v10.59c0,1.26.94,2.32,2.19,2.48Z"/>
      <path class="cls-7" d="M130,75h5v10h-5c-2.76,0-5-2.24-5-5h0c0-2.76,2.24-5,5-5Z"/>
      <polygon class="cls-7" points="140 85 135 87.5 135 72.5 140 75 140 85"/>
      <polygon class="cls-7" points="145 85 140 87.5 140 72.5 145 75 145 85"/>
      <rect class="cls-3" x="192.5" y="77.5" width="12.5" height="5"/>
      <path class="cls-3" d="M205,75h0c2.76,0,5,2.24,5,5h0c0,2.76-2.24,5-5,5h0v-10h0Z"/>
      <circle class="cls-3" cx="207.5" cy="75" r="2.5"/>
      <circle class="cls-3" cx="207.5" cy="85" r="2.5"/>
      <line class="cls-5" x1="207.5" y1="80" x2="235" y2="75"/>
      <line class="cls-5" x1="235" y1="85" x2="207.5" y2="80"/>
      <polygon class="cls-3" points="165 85 160 87.5 160 72.5 165 75 165 85"/>
      <polygon class="cls-3" points="170 85 165 87.5 165 72.5 170 75 170 85"/>
      <polygon class="cls-3" points="160 85 155 87.5 155 72.5 160 75 160 85"/>
      <polygon class="cls-3" points="155 85 150 87.5 150 72.5 155 75 155 85"/>
      <polygon class="cls-3" points="150 85 145 87.5 145 72.5 150 75 150 85"/>
      <polygon class="cls-3" points="145 82.5 140 85 140 75 145 77.5 145 82.5"/>
      <polygon class="cls-3" points="140 82.5 135 85 135 75 140 77.5 140 82.5"/>
      <polygon class="cls-3" points="135 82.5 130 85 130 75 135 77.5 135 82.5"/>
      <rect class="cls-3" x="125" y="78.75" width="5" height="2.5"/>
      <path class="cls-2" d="M161.17,15h.49c4.83,0,8.97,3.46,9.84,8.21l8.35,45.9c.08.42-.3.77-.71.67l-8.49-2.12c-6.38-1.59-11.07-7.02-11.73-13.57l-3.3-32.95c-.33-3.29,2.25-6.14,5.55-6.14Z"/>
      <path class="cls-1" d="M200,90h-7.5c-1.38,0-2.5-1.12-2.5-2.5v-15c0-1.38,1.12-2.5,2.5-2.5h7.5c5.52,0,10,4.48,10,10h0c0,5.52-4.48,10-10,10Z"/>
      <path class="cls-9" d="M160,30h58c1.1,0,2,.9,2,2v8h-70c0-5.52,4.48-10,10-10Z" transform="translate(220 -150) rotate(90)"/>
      <path class="cls-9" d="M150,120h70v8c0,1.1-.9,2-2,2h-58c-5.52,0-10-4.48-10-10h0Z" transform="translate(60 310) rotate(-90)"/>
      <path class="cls-3" d="M157.75,32.75h60.5v7h-67.5c0-3.86,3.14-7,7-7Z" transform="translate(220.75 -148.25) rotate(90)"/>
      <path class="cls-3" d="M150.75,120.25h67.5v7h-60.5c-3.86,0-7-3.14-7-7h0Z" transform="translate(60.75 308.25) rotate(-90)"/>
      <path class="cls-2" d="M160.52,145h1.13c4.83,0,8.97-3.46,9.84-8.21l8.51-46.79-9.76,2.44c-6.14,1.54-10.66,6.76-11.29,13.06l-3.4,34c-.29,2.94,2.02,5.5,4.98,5.5Z"/>
      <rect class="cls-4" x="120" y="0" width="120" height="160"/>
    </g>
    <g>
      <path class="cls-8" d="M57.09,87.85l10,1.67c1.52.25,2.91-.92,2.91-2.47v-2.05h15c2.76,0,5-2.24,5-5h0c0-2.76-2.24-5-5-5h-15v-2.05c0-1.54-1.39-2.72-2.91-2.47l-10,1.67c-1.21.2-2.09,1.24-2.09,2.47v10.76c0,1.22.88,2.27,2.09,2.47Z"/>
      <rect class="cls-3" x="72.5" y="77.5" width="12.5" height="5"/>
      <path class="cls-3" d="M85,75h0c2.76,0,5,2.24,5,5h0c0,2.76-2.24,5-5,5h0v-10h0Z"/>
      <circle class="cls-3" cx="87.5" cy="75" r="2.5"/>
      <circle class="cls-3" cx="87.5" cy="85" r="2.5"/>
      <line class="cls-5" x1="87.5" y1="80" x2="115" y2="75"/>
      <line class="cls-5" x1="115" y1="85" x2="87.5" y2="80"/>
      <path class="cls-1" d="M80,90h-7.5c-1.38,0-2.5-1.12-2.5-2.5v-15c0-1.38,1.12-2.5,2.5-2.5h7.5c5.52,0,10,4.48,10,10h0c0,5.52-4.48,10-10,10Z"/>
      <path class="cls-7" d="M15,75h5v10h-5c-2.76,0-5-2.24-5-5h0c0-2.76,2.24-5,5-5Z"/>
      <polygon class="cls-7" points="25 85 20 87.5 20 72.5 25 75 25 85"/>
      <polygon class="cls-7" points="30 85 25 87.5 25 72.5 30 75 30 85"/>
      <polygon class="cls-3" points="50 85 45 87.5 45 72.5 50 75 50 85"/>
      <polygon class="cls-3" points="55 85 50 87.5 50 72.5 55 75 55 85"/>
      <polygon class="cls-3" points="45 85 40 87.5 40 72.5 45 75 45 85"/>
      <polygon class="cls-3" points="40 85 35 87.5 35 72.5 40 75 40 85"/>
      <polygon class="cls-3" points="35 85 30 87.5 30 72.5 35 75 35 85"/>
      <polygon class="cls-3" points="30 82.5 25 85 25 75 30 77.5 30 82.5"/>
      <polygon class="cls-3" points="25 82.5 20 85 20 75 25 77.5 25 82.5"/>
      <polygon class="cls-3" points="20 82.5 15 85 15 75 20 77.5 20 82.5"/>
      <rect class="cls-3" x="10" y="78.75" width="5" height="2.5"/>
      <path class="cls-9" d="M10,70h58c1.1,0,2,.9,2,2v8H0C0,74.48,4.48,70,10,70Z"/>
      <path class="cls-9" d="M0,80h70v8c0,1.1-.9,2-2,2H10C4.48,90,0,85.52,0,80H0Z"/>
      <path class="cls-3" d="M9.5,72h60.5v7H2.5c0-3.86,3.14-7,7-7Z"/>
      <path class="cls-3" d="M2.5,81h67.5v7H9.5c-3.86,0-7-3.14-7-7h0Z"/>
      <rect class="cls-4" width="120" height="160"/>
    </g>
    <g>
      <path class="cls-8" d="M292.19,87.77l15,1.87c1.49.19,2.81-.98,2.81-2.48v-2.17h15c2.76,0,5-2.24,5-5h0c0-2.76-2.24-5-5-5h-15v-2.17c0-1.5-1.32-2.67-2.81-2.48l-15,1.87c-1.25.16-2.19,1.22-2.19,2.48v10.59c0,1.26.94,2.32,2.19,2.48Z"/>
      <path class="cls-7" d="M250,75h5v10h-5c-2.76,0-5-2.24-5-5h0c0-2.76,2.24-5,5-5Z"/>
      <polygon class="cls-7" points="260 85 255 87.5 255 72.5 260 75 260 85"/>
      <polygon class="cls-7" points="265 85 260 87.5 260 72.5 265 75 265 85"/>
      <polygon class="cls-3" points="285 85 280 87.5 280 72.5 285 75 285 85"/>
      <polygon class="cls-3" points="290 85 285 87.5 285 72.5 290 75 290 85"/>
      <polygon class="cls-3" points="280 85 275 87.5 275 72.5 280 75 280 85"/>
      <polygon class="cls-3" points="275 85 270 87.5 270 72.5 275 75 275 85"/>
      <polygon class="cls-3" points="270 85 265 87.5 265 72.5 270 75 270 85"/>
      <polygon class="cls-3" points="265 82.5 260 85 260 75 265 77.5 265 82.5"/>
      <polygon class="cls-3" points="260 82.5 255 85 255 75 260 77.5 260 82.5"/>
      <polygon class="cls-3" points="255 82.5 250 85 250 75 255 77.5 255 82.5"/>
      <rect class="cls-3" x="245" y="78.75" width="5" height="2.5"/>
      <path class="cls-2" d="M281.17,54.29h.49c4.83,0,8.97.99,9.84,2.35l8.35,13.11c.08.12-.3.22-.71.19l-8.49-.61c-6.38-.46-11.07-2.01-11.73-3.88l-3.3-9.42c-.33-.94,2.25-1.75,5.55-1.75Z"/>
      <path class="cls-9" d="M300.35,55h13.59c.59,0,1.07.48,1.07,1.07v8.93h-20v-4.65c0-2.95,2.4-5.35,5.35-5.35Z" transform="translate(365 -245) rotate(90)"/>
      <path class="cls-9" d="M295,95h20v8.93c0,.59-.48,1.07-1.07,1.07h-13.59c-2.95,0-5.35-2.4-5.35-5.35v-4.65h0Z" transform="translate(205 405) rotate(-90)"/>
      <path class="cls-3" d="M298.6,56.86h15.54v7h-19.29v-3.26c0-2.07,1.68-3.74,3.74-3.74Z" transform="translate(364.86 -244.14) rotate(90)"/>
      <path class="cls-3" d="M294.86,96.14h19.29v7h-15.54c-2.07,0-3.74-1.68-3.74-3.74v-3.26h0Z" transform="translate(204.86 404.14) rotate(-90)"/>
      <path class="cls-2" d="M280.52,105.71h1.13c4.83,0,8.97-.99,9.84-2.35l8.51-13.37-9.76.7c-6.14.44-10.66,1.93-11.29,3.73l-3.4,9.71c-.29.84,2.02,1.57,4.98,1.57Z"/>
      <rect class="cls-3" x="312.5" y="77.5" width="12.5" height="5"/>
      <path class="cls-3" d="M325,75h0c2.76,0,5,2.24,5,5h0c0,2.76-2.24,5-5,5h0v-10h0Z"/>
      <circle class="cls-3" cx="327.5" cy="75" r="2.5"/>
      <circle class="cls-3" cx="327.5" cy="85" r="2.5"/>
      <line class="cls-5" x1="327.5" y1="80" x2="355" y2="75"/>
      <line class="cls-5" x1="355" y1="85" x2="327.5" y2="80"/>
      <path class="cls-1" d="M320,90h-7.5c-1.38,0-2.5-1.12-2.5-2.5v-15c0-1.38,1.12-2.5,2.5-2.5h7.5c5.52,0,10,4.48,10,10h0c0,5.52-4.48,10-10,10Z"/>
      <rect class="cls-4" x="240" width="120" height="160"/>
    </g>
    <g>
      <path class="cls-8" d="M410,85h20v-9.67c0-1.5-1.32-2.67-2.81-2.48l-17.19,2.15v10Z"/>
      <polygon class="cls-3" points="410 82.5 405 85 405 75 410 77.5 410 82.5"/>
      <polygon class="cls-3" points="405 82.5 400 85 400 75 405 77.5 405 82.5"/>
      <polygon class="cls-3" points="400 82.5 395 85 395 75 400 77.5 400 82.5"/>
      <polygon class="cls-3" points="395 82.5 390 85 390 75 395 77.5 395 82.5"/>
      <polygon class="cls-3" points="390 82.5 385 85 385 75 390 77.5 390 82.5"/>
      <path class="cls-3" d="M447.5,80h5c0,2.76-2.24,5-5,5h0v-5h0Z"/>
      <line class="cls-5" x1="450" y1="80" x2="475" y2="75"/>
      <rect class="cls-3" x="430" y="77.5" width="20" height="2.5"/>
      <rect class="cls-8" x="430" y="80" width="17.5" height="5"/>
      <circle class="cls-3" cx="450" cy="80" r="2.5"/>
      <polygon class="cls-7" points="385 82.5 380 85 380 80 385 80 385 82.5"/>
      <polygon class="cls-7" points="380 82.5 375 85 375 80 380 80 380 82.5"/>
      <polygon class="cls-3" points="385 80 380 80 380 75 385 77.5 385 80"/>
      <polygon class="cls-3" points="380 80 375 80 375 75 380 77.5 380 80"/>
      <path class="cls-3" d="M375,80h-10c0-1.38,1.12-2.5,2.5-2.5h7.5v2.5Z"/>
      <path class="cls-7" d="M375,80h-10c0,1.38,1.12,2.5,2.5,2.5h7.5v-2.5Z"/>
      <path class="cls-9" d="M367.5,72.5h60c1.38,0,2.5,1.12,2.5,2.5v5h-70c0-4.14,3.36-7.5,7.5-7.5Z"/>
      <path class="cls-3" d="M368.5,72.5h59c1.38,0,2.5,1.12,2.5,2.5v3.5h-67.5c0-3.31,2.69-6,6-6Z"/>
      <path class="cls-1" d="M450,80h-20v-5c0-1.38,1.12-2.5,2.5-2.5h10c4.14,0,7.5,3.36,7.5,7.5h0Z"/>
      <rect class="cls-4" x="360" width="120" height="160"/>
    </g>
    <g>
      <path class="cls-8" d="M530,85h20v-9.67c0-1.5-1.32-2.67-2.81-2.48l-17.19,2.15v10Z"/>
      <polygon class="cls-3" points="530 82.5 525 85 525 75 530 77.5 530 82.5"/>
      <polygon class="cls-3" points="525 82.5 520 85 520 75 525 77.5 525 82.5"/>
      <polygon class="cls-3" points="520 82.5 515 85 515 75 520 77.5 520 82.5"/>
      <polygon class="cls-3" points="515 82.5 510 85 510 75 515 77.5 515 82.5"/>
      <polygon class="cls-3" points="510 82.5 505 85 505 75 510 77.5 510 82.5"/>
      <path class="cls-3" d="M567.5,80h5c0,2.76-2.24,5-5,5h0v-5h0Z"/>
      <line class="cls-5" x1="570" y1="80" x2="595" y2="75"/>
      <rect class="cls-3" x="550" y="77.5" width="20" height="2.5"/>
      <rect class="cls-8" x="550" y="80" width="17.5" height="5"/>
      <circle class="cls-3" cx="570" cy="80" r="2.5"/>
      <polygon class="cls-7" points="505 82.5 500 85 500 80 505 80 505 82.5"/>
      <polygon class="cls-7" points="500 82.5 495 85 495 80 500 80 500 82.5"/>
      <polygon class="cls-3" points="505 80 500 80 500 75 505 77.5 505 80"/>
      <polygon class="cls-3" points="500 80 495 80 495 75 500 77.5 500 80"/>
      <path class="cls-3" d="M495,80h-10c0-1.38,1.12-2.5,2.5-2.5h7.5v2.5Z"/>
      <path class="cls-7" d="M495,80h-10c0,1.38,1.12,2.5,2.5,2.5h7.5v-2.5Z"/>
      <path class="cls-9" d="M524.3,40h48.44c1.25,0,2.27,1.02,2.27,2.27v5.23h-57.5v-.7c0-3.75,3.05-6.8,6.8-6.8Z" transform="translate(590 -502.5) rotate(90)"/>
      <path class="cls-3" d="M524.71,41.78h47.74c1.25,0,2.27,1.02,2.27,2.27v3.73h-55.45v-.56c0-3,2.44-5.44,5.44-5.44Z" transform="translate(591.78 -502.22) rotate(90)"/>
      <path class="cls-1" d="M570,80h-20v-5c0-1.38,1.12-2.5,2.5-2.5h10c4.14,0,7.5,3.36,7.5,7.5h0Z"/>
      <path class="cls-2" d="M521.17,20h.49c4.83,0,8.97,3.46,9.84,8.21l8.35,45.9c.08.42-.3.77-.71.67l-8.49-2.12c-6.38-1.59-11.07-7.02-11.73-13.57l-3.3-32.95c-.33-3.29,2.25-6.14,5.55-6.14Z"/>
      <rect class="cls-4" x="480" width="120" height="160"/>
    </g>
    <g>
      <path class="cls-8" d="M650,85h20v-9.67c0-1.5-1.32-2.67-2.81-2.48l-17.19,2.15v10Z"/>
      <polygon class="cls-3" points="650 82.5 645 85 645 75 650 77.5 650 82.5"/>
      <polygon class="cls-3" points="645 82.5 640 85 640 75 645 77.5 645 82.5"/>
      <polygon class="cls-3" points="640 82.5 635 85 635 75 640 77.5 640 82.5"/>
      <polygon class="cls-3" points="635 82.5 630 85 630 75 635 77.5 635 82.5"/>
      <polygon class="cls-3" points="630 82.5 625 85 625 75 630 77.5 630 82.5"/>
      <path class="cls-3" d="M687.5,80h5c0,2.76-2.24,5-5,5h0v-5h0Z"/>
      <line class="cls-5" x1="690" y1="80" x2="715" y2="75"/>
      <rect class="cls-3" x="670" y="77.5" width="20" height="2.5"/>
      <rect class="cls-8" x="670" y="80" width="17.5" height="5"/>
      <circle class="cls-3" cx="690" cy="80" r="2.5"/>
      <polygon class="cls-7" points="625 82.5 620 85 620 80 625 80 625 82.5"/>
      <polygon class="cls-7" points="620 82.5 615 85 615 80 620 80 620 82.5"/>
      <polygon class="cls-3" points="625 80 620 80 620 75 625 77.5 625 80"/>
      <polygon class="cls-3" points="620 80 615 80 615 75 620 77.5 620 80"/>
      <path class="cls-3" d="M615,80h-10c0-1.38,1.12-2.5,2.5-2.5h7.5v2.5Z"/>
      <path class="cls-7" d="M615,80h-10c0,1.38,1.12,2.5,2.5,2.5h7.5v-2.5Z"/>
      <path class="cls-9" d="M662.48,63.41h9.8c.62,0,1.13.51,1.13,1.13v6.37h-14.33v-4.11c0-1.87,1.52-3.39,3.39-3.39Z" transform="translate(733.41 -599.09) rotate(90)"/>
      <path class="cls-3" d="M662.81,64.42h9.97c.62,0,1.13.51,1.13,1.13v4.87h-13.82v-3.29c0-1.5,1.22-2.71,2.71-2.71Z" transform="translate(734.42 -599.58) rotate(90)"/>
      <path class="cls-1" d="M690,80h-20v-5c0-1.38,1.12-2.5,2.5-2.5h10c4.14,0,7.5,3.36,7.5,7.5h0Z"/>
      <path class="cls-2" d="M641.17,63.58h.49c4.83,0,8.97.71,9.84,1.68l8.35,9.4c.08.09-.3.16-.71.14l-8.49-.43c-6.38-.33-11.07-1.44-11.73-2.78l-3.3-6.75c-.33-.67,2.25-1.26,5.55-1.26Z"/>
      <rect class="cls-4" x="600" width="120" height="160"/>
    </g>
    <g>
      <path class="cls-8" d="M172.19,247.77l15,1.87c1.49.19,2.81-.98,2.81-2.48v-2.17h15c2.76,0,5-2.24,5-5h0c0-2.76-2.24-5-5-5h-15v-2.17c0-1.5-1.32-2.67-2.81-2.48l-15,1.87c-1.25.16-2.19,1.22-2.19,2.48v10.59c0,1.26.94,2.32,2.19,2.48Z"/>
      <polygon class="cls-3" points="165 245 160 247.5 160 232.5 165 235 165 245"/>
      <polygon class="cls-3" points="160 245 155 247.5 155 232.5 160 235 160 245"/>
      <polygon class="cls-3" points="155 245 150 247.5 150 232.5 155 235 155 245"/>
      <polygon class="cls-3" points="150 245 145 247.5 145 232.5 150 235 150 245"/>
      <path class="cls-6" d="M130,235h5v10h-5c-2.76,0-5-2.24-5-5h0c0-2.76,2.24-5,5-5Z"/>
      <polygon class="cls-6" points="140 245 135 247.5 135 232.5 140 235 140 245"/>
      <polygon class="cls-6" points="145 245 140 247.5 140 232.5 145 235 145 245"/>
      <rect class="cls-3" x="192.5" y="237.5" width="12.5" height="5"/>
      <path class="cls-3" d="M205,235h0c2.76,0,5,2.24,5,5h0c0,2.76-2.24,5-5,5h0v-10h0Z"/>
      <circle class="cls-3" cx="207.5" cy="235" r="2.5"/>
      <circle class="cls-3" cx="207.5" cy="245" r="2.5"/>
      <line class="cls-5" x1="207.5" y1="240" x2="235" y2="235"/>
      <line class="cls-5" x1="235" y1="245" x2="207.5" y2="240"/>
      <polygon class="cls-3" points="145 242.5 140 245 140 235 145 237.5 145 242.5"/>
      <polygon class="cls-3" points="140 242.5 135 245 135 235 140 237.5 140 242.5"/>
      <polygon class="cls-3" points="135 242.5 130 245 130 235 135 237.5 135 242.5"/>
      <rect class="cls-3" x="125" y="238.75" width="5" height="2.5"/>
      <path class="cls-2" d="M161.17,175h.49c4.83,0,8.97,3.46,9.84,8.21l8.35,45.9c.08.42-.3.77-.71.67l-8.49-2.12c-6.38-1.59-11.07-7.02-11.73-13.57l-3.3-32.95c-.33-3.29,2.25-6.14,5.55-6.14Z"/>
      <path class="cls-1" d="M200,250h-7.5c-1.38,0-2.5-1.12-2.5-2.5v-15c0-1.38,1.12-2.5,2.5-2.5h7.5c5.52,0,10,4.48,10,10h0c0,5.52-4.48,10-10,10Z"/>
      <path class="cls-9" d="M160,190h58c1.1,0,2,.9,2,2v8h-70c0-5.52,4.48-10,10-10Z" transform="translate(380 10) rotate(90)"/>
      <path class="cls-9" d="M150,280h70v8c0,1.1-.9,2-2,2h-58c-5.52,0-10-4.48-10-10h0Z" transform="translate(-100 470) rotate(-90)"/>
      <path class="cls-3" d="M157.75,192.75h60.5v7h-67.5c0-3.86,3.14-7,7-7Z" transform="translate(380.75 11.75) rotate(90)"/>
      <path class="cls-3" d="M150.75,280.25h67.5v7h-60.5c-3.86,0-7-3.14-7-7h0Z" transform="translate(-99.25 468.25) rotate(-90)"/>
      <path class="cls-2" d="M160.52,305h1.13c4.83,0,8.97-3.46,9.84-8.21l8.51-46.79-9.76,2.44c-6.14,1.54-10.66,6.76-11.29,13.06l-3.4,34c-.29,2.94,2.02,5.5,4.98,5.5Z"/>
      <rect class="cls-4" x="120" y="160" width="120" height="160"/>
    </g>
    <g>
      <path class="cls-8" d="M410,245h20v-9.67c0-1.5-1.32-2.67-2.81-2.48l-17.19,2.15v10Z"/>
      <polygon class="cls-3" points="410 242.5 405 245 405 235 410 237.5 410 242.5"/>
      <polygon class="cls-3" points="405 242.5 400 245 400 235 405 237.5 405 242.5"/>
      <polygon class="cls-3" points="400 242.5 395 245 395 235 400 237.5 400 242.5"/>
      <polygon class="cls-3" points="395 242.5 390 245 390 235 395 237.5 395 242.5"/>
      <polygon class="cls-3" points="390 242.5 385 245 385 235 390 237.5 390 242.5"/>
      <path class="cls-3" d="M447.5,240h5c0,2.76-2.24,5-5,5h0v-5h0Z"/>
      <line class="cls-5" x1="450" y1="240" x2="475" y2="235"/>
      <rect class="cls-3" x="430" y="237.5" width="20" height="2.5"/>
      <rect class="cls-8" x="430" y="240" width="17.5" height="5"/>
      <circle class="cls-3" cx="450" cy="240" r="2.5"/>
      <polygon class="cls-6" points="385 242.5 380 245 380 240 385 240 385 242.5"/>
      <polygon class="cls-6" points="380 242.5 375 245 375 240 380 240 380 242.5"/>
      <polygon class="cls-3" points="385 240 380 240 380 235 385 237.5 385 240"/>
      <polygon class="cls-3" points="380 240 375 240 375 235 380 237.5 380 240"/>
      <path class="cls-3" d="M375,240h-10c0-1.38,1.12-2.5,2.5-2.5h7.5v2.5Z"/>
      <path class="cls-6" d="M375,240h-10c0,1.38,1.12,2.5,2.5,2.5h7.5v-2.5Z"/>
      <path class="cls-9" d="M367.5,232.5h60c1.38,0,2.5,1.12,2.5,2.5v5h-70c0-4.14,3.36-7.5,7.5-7.5Z"/>
      <path class="cls-3" d="M368.5,232.5h59c1.38,0,2.5,1.12,2.5,2.5v3.5h-67.5c0-3.31,2.69-6,6-6Z"/>
      <path class="cls-1" d="M450,240h-20v-5c0-1.38,1.12-2.5,2.5-2.5h10c4.14,0,7.5,3.36,7.5,7.5h0Z"/>
      <rect class="cls-4" x="360" y="160" width="120" height="160"/>
    </g>
    <g>
      <path class="cls-8" d="M530,245h20v-9.67c0-1.5-1.32-2.67-2.81-2.48l-17.19,2.15v10Z"/>
      <polygon class="cls-3" points="530 242.5 525 245 525 235 530 237.5 530 242.5"/>
      <polygon class="cls-3" points="525 242.5 520 245 520 235 525 237.5 525 242.5"/>
      <polygon class="cls-3" points="520 242.5 515 245 515 235 520 237.5 520 242.5"/>
      <polygon class="cls-3" points="515 242.5 510 245 510 235 515 237.5 515 242.5"/>
      <polygon class="cls-3" points="510 242.5 505 245 505 235 510 237.5 510 242.5"/>
      <path class="cls-3" d="M567.5,240h5c0,2.76-2.24,5-5,5h0v-5h0Z"/>
      <line class="cls-5" x1="570" y1="240" x2="595" y2="235"/>
      <rect class="cls-3" x="550" y="237.5" width="20" height="2.5"/>
      <rect class="cls-8" x="550" y="240" width="17.5" height="5"/>
      <circle class="cls-3" cx="570" cy="240" r="2.5"/>
      <polygon class="cls-6" points="505 242.5 500 245 500 240 505 240 505 242.5"/>
      <polygon class="cls-6" points="500 242.5 495 245 495 240 500 240 500 242.5"/>
      <polygon class="cls-3" points="505 240 500 240 500 235 505 237.5 505 240"/>
      <polygon class="cls-3" points="500 240 495 240 495 235 500 237.5 500 240"/>
      <path class="cls-3" d="M495,240h-10c0-1.38,1.12-2.5,2.5-2.5h7.5v2.5Z"/>
      <path class="cls-6" d="M495,240h-10c0,1.38,1.12,2.5,2.5,2.5h7.5v-2.5Z"/>
      <path class="cls-9" d="M524.3,200h48.44c1.25,0,2.27,1.02,2.27,2.27v5.23h-57.5v-.7c0-3.75,3.05-6.8,6.8-6.8Z" transform="translate(750 -342.5) rotate(90)"/>
      <path class="cls-3" d="M524.71,201.78h47.74c1.25,0,2.27,1.02,2.27,2.27v3.73h-55.45v-.56c0-3,2.44-5.44,5.44-5.44Z" transform="translate(751.78 -342.22) rotate(90)"/>
      <path class="cls-1" d="M570,240h-20v-5c0-1.38,1.12-2.5,2.5-2.5h10c4.14,0,7.5,3.36,7.5,7.5h0Z"/>
      <path class="cls-2" d="M521.17,180h.49c4.83,0,8.97,3.46,9.84,8.21l8.35,45.9c.08.42-.3.77-.71.67l-8.49-2.12c-6.38-1.59-11.07-7.02-11.73-13.57l-3.3-32.95c-.33-3.29,2.25-6.14,5.55-6.14Z"/>
      <rect class="cls-4" x="480" y="160" width="120" height="160"/>
    </g>
    <g>
      <path class="cls-8" d="M650,245h20v-9.67c0-1.5-1.32-2.67-2.81-2.48l-17.19,2.15v10Z"/>
      <polygon class="cls-3" points="650 242.5 645 245 645 235 650 237.5 650 242.5"/>
      <polygon class="cls-3" points="645 242.5 640 245 640 235 645 237.5 645 242.5"/>
      <polygon class="cls-3" points="640 242.5 635 245 635 235 640 237.5 640 242.5"/>
      <polygon class="cls-3" points="635 242.5 630 245 630 235 635 237.5 635 242.5"/>
      <polygon class="cls-3" points="630 242.5 625 245 625 235 630 237.5 630 242.5"/>
      <path class="cls-3" d="M687.5,240h5c0,2.76-2.24,5-5,5h0v-5h0Z"/>
      <line class="cls-5" x1="690" y1="240" x2="715" y2="235"/>
      <rect class="cls-3" x="670" y="237.5" width="20" height="2.5"/>
      <rect class="cls-8" x="670" y="240" width="17.5" height="5"/>
      <circle class="cls-3" cx="690" cy="240" r="2.5"/>
      <polygon class="cls-6" points="625 242.5 620 245 620 240 625 240 625 242.5"/>
      <polygon class="cls-6" points="620 242.5 615 245 615 240 620 240 620 242.5"/>
      <polygon class="cls-3" points="625 240 620 240 620 235 625 237.5 625 240"/>
      <polygon class="cls-3" points="620 240 615 240 615 235 620 237.5 620 240"/>
      <path class="cls-3" d="M615,240h-10c0-1.38,1.12-2.5,2.5-2.5h7.5v2.5Z"/>
      <path class="cls-6" d="M615,240h-10c0,1.38,1.12,2.5,2.5,2.5h7.5v-2.5Z"/>
      <path class="cls-9" d="M662.48,223.41h9.8c.62,0,1.13.51,1.13,1.13v6.37h-14.33v-4.11c0-1.87,1.52-3.39,3.39-3.39Z" transform="translate(893.41 -439.09) rotate(90)"/>
      <path class="cls-3" d="M662.81,224.42h9.97c.62,0,1.13.51,1.13,1.13v4.87h-13.82v-3.29c0-1.5,1.22-2.71,2.71-2.71Z" transform="translate(894.42 -439.58) rotate(90)"/>
      <path class="cls-1" d="M690,240h-20v-5c0-1.38,1.12-2.5,2.5-2.5h10c4.14,0,7.5,3.36,7.5,7.5h0Z"/>
      <path class="cls-2" d="M641.17,223.58h.49c4.83,0,8.97.71,9.84,1.68l8.35,9.4c.08.09-.3.16-.71.14l-8.49-.43c-6.38-.33-11.07-1.44-11.73-2.78l-3.3-6.75c-.33-.67,2.25-1.26,5.55-1.26Z"/>
      <rect class="cls-4" x="600" y="160" width="120" height="160"/>
    </g>
    <g>
      <path class="cls-2" d="M281.17,214.29h.49c4.83,0,8.97.99,9.84,2.35l8.35,13.11c.08.12-.3.22-.71.19l-8.49-.61c-6.38-.46-11.07-2.01-11.73-3.88l-3.3-9.42c-.33-.94,2.25-1.75,5.55-1.75Z"/>
      <path class="cls-9" d="M300.35,215h13.59c.59,0,1.07.48,1.07,1.07v8.93h-20v-4.65c0-2.95,2.4-5.35,5.35-5.35Z" transform="translate(525 -85) rotate(90)"/>
      <path class="cls-9" d="M295,255h20v8.93c0,.59-.48,1.07-1.07,1.07h-13.59c-2.95,0-5.35-2.4-5.35-5.35v-4.65h0Z" transform="translate(45 565) rotate(-90)"/>
      <path class="cls-3" d="M298.6,216.86h15.54v7h-19.29v-3.26c0-2.07,1.68-3.74,3.74-3.74Z" transform="translate(524.86 -84.14) rotate(90)"/>
      <path class="cls-3" d="M294.86,256.14h19.29v7h-15.54c-2.07,0-3.74-1.68-3.74-3.74v-3.26h0Z" transform="translate(44.86 564.14) rotate(-90)"/>
      <path class="cls-2" d="M280.52,265.71h1.13c4.83,0,8.97-.99,9.84-2.35l8.51-13.37-9.76.7c-6.14.44-10.66,1.93-11.29,3.73l-3.4,9.71c-.29.84,2.02,1.57,4.98,1.57Z"/>
      <path class="cls-6" d="M250,235h5v10h-5c-2.76,0-5-2.24-5-5h0c0-2.76,2.24-5,5-5Z"/>
      <polygon class="cls-6" points="260 245 255 247.5 255 232.5 260 235 260 245"/>
      <polygon class="cls-6" points="265 245 260 247.5 260 232.5 265 235 265 245"/>
      <rect class="cls-3" x="312.5" y="237.5" width="12.5" height="5"/>
      <path class="cls-3" d="M325,235h0c2.76,0,5,2.24,5,5h0c0,2.76-2.24,5-5,5h0v-10h0Z"/>
      <circle class="cls-3" cx="327.5" cy="235" r="2.5"/>
      <circle class="cls-3" cx="327.5" cy="245" r="2.5"/>
      <line class="cls-5" x1="327.5" y1="240" x2="355" y2="235"/>
      <line class="cls-5" x1="355" y1="245" x2="327.5" y2="240"/>
      <polygon class="cls-3" points="265 242.5 260 245 260 235 265 237.5 265 242.5"/>
      <polygon class="cls-3" points="260 242.5 255 245 255 235 260 237.5 260 242.5"/>
      <polygon class="cls-3" points="255 242.5 250 245 250 235 255 237.5 255 242.5"/>
      <rect class="cls-3" x="245" y="238.75" width="5" height="2.5"/>
      <path class="cls-1" d="M320,250h-7.5c-1.38,0-2.5-1.12-2.5-2.5v-15c0-1.38,1.12-2.5,2.5-2.5h7.5c5.52,0,10,4.48,10,10h0c0,5.52-4.48,10-10,10Z"/>
      <path class="cls-8" d="M292.19,247.77l15,1.87c1.49.19,2.81-.98,2.81-2.48v-2.17h15c2.76,0,5-2.24,5-5h0c0-2.76-2.24-5-5-5h-15v-2.17c0-1.5-1.32-2.67-2.81-2.48l-15,1.87c-1.25.16-2.19,1.22-2.19,2.48v10.59c0,1.26.94,2.32,2.19,2.48Z"/>
      <polygon class="cls-3" points="285 245 280 247.5 280 232.5 285 235 285 245"/>
      <polygon class="cls-3" points="290 245 285 247.5 285 232.5 290 235 290 245"/>
      <polygon class="cls-3" points="280 245 275 247.5 275 232.5 280 235 280 245"/>
      <polygon class="cls-3" points="275 245 270 247.5 270 232.5 275 235 275 245"/>
      <polygon class="cls-3" points="270 245 265 247.5 265 232.5 270 235 270 245"/>
      <rect class="cls-4" x="240" y="160" width="120" height="160"/>
    </g>
  </g>
</svg>