<?xml version="1.0" encoding="UTF-8"?>
<svg id="_레이어_2" data-name="레이어 2" xmlns="http://www.w3.org/2000/svg" viewBox="0 0 575 110">
  <defs>
    <style>
      .cls-1 {
        fill: #e5cf4c;
      }

      .cls-2, .cls-3, .cls-4 {
        fill: none;
      }

      .cls-3 {
        stroke-linecap: round;
      }

      .cls-3, .cls-4 {
        stroke: #ffe655;
        stroke-miterlimit: 10;
      }

      .cls-5 {
        fill: #ffe655;
      }

      .cls-6 {
        opacity: .1;
      }
    </style>
  </defs>
  <g id="_레이어_1-2" data-name="레이어 1">
    <g>
      <path class="cls-5" d="M335,45v10c0,2.76-2.24,5-5,5h-10v-20h10c2.76,0,5,2.24,5,5Z"/>
      <polygon class="cls-5" points="315 60 310 60 305 40 315 40 315 60"/>
      <polygon class="cls-1" points="315 55 315 60 310 60 308.75 55 315 55"/>
      <path class="cls-5" d="M305,60l-3.75-15h-48.75c-4.14,0-7.5,3.36-7.5,7.5h0c0,4.14,3.36,7.5,7.5,7.5h52.5Z"/>
      <path class="cls-1" d="M305,60h-52.5c-2.07,0-3.94-.84-5.3-2.2-.78-.78-1.39-1.74-1.76-2.8h58.31l1.25,5Z"/>
      <path class="cls-6" d="M295,0h0c5.97,2.99,9.36,9.46,8.42,16.07l-3.42,23.93-10-5,5-35Z"/>
      <path class="cls-6" d="M285,5h0s5,35,5,35l-35-5h0c-2.5-17.5,12.5-32.5,30-30Z"/>
      <path class="cls-1" d="M335,50v5c0,1.38-.56,2.63-1.46,3.54-.91.9-2.16,1.46-3.54,1.46v-5c1.38,0,2.63-.56,3.54-1.46.9-.91,1.46-2.16,1.46-3.54Z"/>
      <line class="cls-3" x1="330" y1="45" x2="340" y2="30"/>
      <path d="M330,45v5c-2.76,0-5-2.24-5-5v-5c2.76,0,5,2.24,5,5Z"/>
      <path class="cls-5" d="M261.55,77.94h0l44.5-19.14c.94-.32,1.97-.22,2.83.28h0c1.65.95,2.21,3.05,1.26,4.7l-.14.25c-.41.71-1.06,1.25-1.84,1.52l-42.28,14.89-4.33-2.5Z"/>
      <path class="cls-5" d="M259.27,82.89l-15.04,26.04-4.76-2.75.5-.87,3.9,2.25,17.23-29.83c.15.05.31.12.46.21l-2.5,4.33.22.62Z"/>
      <rect class="cls-2" x="230" width="115" height="110"/>
    </g>
    <g>
      <circle class="cls-5" cx="180.91" cy="62.5" r="2.5"/>
      <path class="cls-5" d="M178.47,62l4.89,1.05,6.61-35.4c.15-.82-.37-1.61-1.19-1.79h0c-.82-.18-1.62.33-1.82,1.14l-8.49,35Z"/>
      <line class="cls-4" x1="188.41" y1="30" x2="188.41" y2="65"/>
      <circle class="cls-5" cx="159.09" cy="62.5" r="2.5"/>
      <path class="cls-5" d="M161.53,62l-4.89,1.05-6.61-35.4c-.15-.82.37-1.61,1.19-1.79h0c.82-.18,1.62.33,1.82,1.14l8.49,35Z"/>
      <path class="cls-5" d="M180,45v5c0,1.85-1,3.46-2.5,4.33v.67c0,2.76-2.24,5-5,5h-5c-2.76,0-5-2.24-5-5v-.67c-1.5-.87-2.5-2.48-2.5-4.33v-5c0-2.76,2.24-5,5-5h10c2.76,0,5,2.24,5,5Z"/>
      <rect class="cls-5" x="160" y="40" width="20" height="20" rx="5" ry="5"/>
      <path class="cls-1" d="M177.5,50v5c0,1.38-.56,2.63-1.46,3.54-.91.9-2.16,1.46-3.54,1.46v-5c1.38,0,2.63-.56,3.54-1.46.9-.91,1.46-2.16,1.46-3.54Z"/>
      <path class="cls-1" d="M162.5,50v5c0,1.38.56,2.63,1.46,3.54.91.9,2.16,1.46,3.54,1.46v-5c-1.38,0-2.63-.56-3.54-1.46-.9-.91-1.46-2.16-1.46-3.54Z"/>
      <line class="cls-3" x1="172.5" y1="42.5" x2="180" y2="30"/>
      <path d="M165,45v-5c-2.76,0-5,2.24-5,5v5c2.76,0,5-2.24,5-5Z"/>
      <path d="M175,45v-5c2.76,0,5,2.24,5,5v5c-2.76,0-5-2.24-5-5Z"/>
      <line class="cls-3" x1="167.5" y1="42.5" x2="160" y2="30"/>
      <line class="cls-4" x1="151.59" y1="30" x2="151.59" y2="65"/>
      <rect class="cls-2" x="115" width="115" height="110"/>
    </g>
    <g>
      <path class="cls-5" d="M105,45v10c0,2.76-2.24,5-5,5h-10v-20h10c2.76,0,5,2.24,5,5Z"/>
      <polygon class="cls-5" points="85 60 80 60 75 40 85 40 85 60"/>
      <polygon class="cls-1" points="85 55 85 60 80 60 78.75 55 85 55"/>
      <path class="cls-5" d="M75,60l-3.75-15H22.5c-4.14,0-7.5,3.36-7.5,7.5h0c0,4.14,3.36,7.5,7.5,7.5h52.5Z"/>
      <path class="cls-1" d="M75,60H22.5c-2.07,0-3.94-.84-5.3-2.2-.78-.78-1.39-1.74-1.76-2.8h58.31l1.25,5Z"/>
      <path class="cls-6" d="M15,50h57.5l-2.5-10H5c0,5.52,4.48,10,10,10Z"/>
      <path class="cls-1" d="M105,50v5c0,1.38-.56,2.63-1.46,3.54-.91.9-2.16,1.46-3.54,1.46v-5c1.38,0,2.63-.56,3.54-1.46.9-.91,1.46-2.16,1.46-3.54Z"/>
      <line class="cls-3" x1="100" y1="45" x2="110" y2="30"/>
      <path d="M100,45v5c-2.76,0-5-2.24-5-5v-5c2.76,0,5,2.24,5,5Z"/>
      <path class="cls-5" d="M40,30h0l38.83,28.97c.75.65,1.17,1.6,1.17,2.59h0c0,1.9-1.54,3.44-3.44,3.44h-.29c-.82,0-1.61-.29-2.24-.83l-34.03-29.17v-5Z"/>
      <path class="cls-5" d="M40.5,35.43v30.07h-5.5v-1h4.5V30.05c.16-.03.33-.05.5-.05v5l.5.43Z"/>
      <rect class="cls-2" width="115" height="110"/>
    </g>
    <g>
      <path class="cls-5" d="M450,45v10c0,2.76-2.24,5-5,5h-10v-20h10c2.76,0,5,2.24,5,5Z"/>
      <polygon class="cls-5" points="430 60 425 60 420 40 430 40 430 60"/>
      <polygon class="cls-1" points="430 55 430 60 425 60 423.75 55 430 55"/>
      <path class="cls-5" d="M420,60l-3.75-15h-48.75c-4.14,0-7.5,3.36-7.5,7.5h0c0,4.14,3.36,7.5,7.5,7.5h52.5Z"/>
      <line class="cls-3" x1="445" y1="45" x2="455" y2="30"/>
      <path d="M445,45v5c-2.76,0-5-2.24-5-5v-5c2.76,0,5,2.24,5,5Z"/>
      <path class="cls-1" d="M420,60h-52.5c-2.07,0-3.94-.84-5.3-2.2-.78-.78-1.39-1.74-1.76-2.8h58.31l1.25,5Z"/>
      <path class="cls-1" d="M450,50v5c0,1.38-.56,2.63-1.46,3.54-.91.9-2.16,1.46-3.54,1.46v-5c1.38,0,2.63-.56,3.54-1.46.9-.91,1.46-2.16,1.46-3.54Z"/>
      <path class="cls-5" d="M385,30h0l38.83,28.97c.75.65,1.17,1.6,1.17,2.59h0c0,1.9-1.54,3.44-3.44,3.44h-.29c-.82,0-1.61-.29-2.24-.83l-34.03-29.17v-5Z"/>
      <path class="cls-5" d="M360.26,55.47l-10.04,10.04h-5.22v-1s4.79,0,4.79,0l34.83-34.83c.13.1.25.21.37.33l-3.54,3.54.06.65-3.22,3.22-18.04,18.05Z"/>
      <path class="cls-6" d="M410,0h0c5.97,2.99,9.36,9.46,8.42,16.07l-3.42,23.93-10-5,5-35Z"/>
      <path class="cls-6" d="M400,5h0s5,35,5,35l-35-5h0c-2.5-17.5,12.5-32.5,30-30Z"/>
      <rect class="cls-2" x="345" width="115" height="110"/>
    </g>
    <g>
      <path class="cls-5" d="M565,45v10c0,2.76-2.24,5-5,5h-10v-20h10c2.76,0,5,2.24,5,5Z"/>
      <polygon class="cls-5" points="545 60 540 60 535 40 545 40 545 60"/>
      <polygon class="cls-1" points="545 55 545 60 540 60 538.75 55 545 55"/>
      <path class="cls-5" d="M535,60l-3.75-15h-48.75c-4.14,0-7.5,3.36-7.5,7.5h0c0,4.14,3.36,7.5,7.5,7.5h52.5Z"/>
      <line class="cls-3" x1="560" y1="45" x2="570" y2="30"/>
      <path d="M560,45v5c-2.76,0-5-2.24-5-5v-5c2.76,0,5,2.24,5,5Z"/>
      <path class="cls-1" d="M535,60h-52.5c-2.07,0-3.94-.84-5.3-2.2-.78-.78-1.39-1.74-1.76-2.8h58.31l1.25,5Z"/>
      <path class="cls-1" d="M565,50v5c0,1.38-.56,2.63-1.46,3.54-.91.9-2.16,1.46-3.54,1.46v-5c1.38,0,2.63-.56,3.54-1.46.9-.91,1.46-2.16,1.46-3.54Z"/>
      <path class="cls-5" d="M500,30h0l38.83,28.97c.75.65,1.17,1.6,1.17,2.59h0c0,1.9-1.54,3.44-3.44,3.44h-.29c-.82,0-1.61-.29-2.24-.83l-34.03-29.17v-5Z"/>
      <path class="cls-5" d="M475.26,55.47l-10.04,10.04h-5.22v-1s4.79,0,4.79,0l34.83-34.83c.13.1.25.21.37.33l-3.54,3.54.06.65-3.22,3.22-18.04,18.05Z"/>
      <path class="cls-6" d="M525,80h0c5.97-2.99,9.36-9.46,8.42-16.07l-3.42-23.93-10,5,5,35Z"/>
      <path class="cls-6" d="M515,75h0s5-35,5-35l-35,5h0c-2.5,17.5,12.5,32.5,30,30Z"/>
      <rect class="cls-2" x="460" width="115" height="110"/>
    </g>
  </g>
</svg>