<?xml version="1.0" encoding="UTF-8"?>
<svg id="_레이어_2" data-name="레이어 2" xmlns="http://www.w3.org/2000/svg" viewBox="0 0 230 75">
  <defs>
    <style>
      .cls-1 {
        fill: #faf1d4;
      }

      .cls-2 {
        fill: #edc200;
      }

      .cls-3 {
        fill: none;
      }

      .cls-4 {
        fill: #ccc1a3;
      }
    </style>
  </defs>
  <g id="_레이어_1-2" data-name="레이어 1">
    <g>
      <path class="cls-4" d="M0,54.56v-9.56C0,28.43,13.43,15,30,15h45c0-8.28,6.72-15,15-15h5c5.52,0,10,4.48,10,10v35c0,16.57-13.43,30-30,30H20.44c-11.29,0-20.44-9.15-20.44-20.44Z"/>
      <path class="cls-1" d="M105,10l8,6c1.26.94,2,2.43,2,4h0c0,2.76-2.24,5-5,5h-7.5s-7.5-10-7.5-10h0c0-2.76,2.24-5,5-5h5Z"/>
      <circle class="cls-2" cx="98.75" cy="13.75" r="1.25"/>
      <path d="M100,13.75c0,.18-.04.34-.11.5h-2.28c-.07-.16-.11-.32-.11-.5s.04-.34.11-.5h2.28c.07.16.11.32.11.5Z"/>
      <path class="cls-1" d="M85,10h5c0,2.76-2.24,5-5,5h-5c0-2.76,2.24-5,5-5Z"/>
      <rect class="cls-3" width="115" height="75"/>
    </g>
    <g>
      <path class="cls-4" d="M195,30h-40l2.91-17.47c1.21-7.23,7.46-12.53,14.8-12.53h4.59c7.33,0,13.59,5.3,14.8,12.53l2.91,17.47Z"/>
      <path class="cls-4" d="M175,15h0c16.56,0,30,13.44,30,30v15c0,8.28-6.72,15-15,15h-30c-8.28,0-15-6.72-15-15v-15c0-16.56,13.44-30,30-30Z"/>
      <path class="cls-1" d="M175.76,25h-1.53c-2.44,0-4.53-1.77-4.93-4.18l-1.32-7.91c-.25-1.52.92-2.91,2.47-2.91h9.1c1.54,0,2.72,1.39,2.47,2.91l-1.32,7.91c-.4,2.41-2.49,4.18-4.93,4.18Z"/>
      <circle class="cls-2" cx="170" cy="13.75" r="1.25"/>
      <path d="M171.25,13.75c0,.18-.04.34-.11.5h-2.28c-.07-.16-.11-.32-.11-.5s.04-.34.11-.5h2.28c.07.16.11.32.11.5Z"/>
      <circle class="cls-2" cx="180" cy="13.75" r="1.25"/>
      <path d="M181.25,13.75c0,.18-.04.34-.11.5h-2.28c-.07-.16-.11-.32-.11-.5s.04-.34.11-.5h2.28c.07.16.11.32.11.5Z"/>
      <path class="cls-1" d="M160,10h5c0,2.76-2.24,5-5,5h-5c0-2.76,2.24-5,5-5Z"/>
      <path class="cls-1" d="M185,10h5c2.76,0,5,2.24,5,5h-5c-2.76,0-5-2.24-5-5h0Z" transform="translate(380 25) rotate(180)"/>
      <rect class="cls-3" x="115" width="115" height="75"/>
    </g>
  </g>
</svg>