<?xml version="1.0" encoding="UTF-8"?>
<svg id="_레이어_2" data-name="레이어 2" xmlns="http://www.w3.org/2000/svg" xmlns:xlink="http://www.w3.org/1999/xlink" viewBox="0 0 440 100.28">
  <defs>
    <style>
      .cls-1 {
        fill: #1b516c;
      }

      .cls-2 {
        fill: #d0d9e5;
      }

      .cls-3 {
        fill: none;
      }

      .cls-4 {
        fill: #d0d9e5;
      }

      .cls-5 {
        fill: #ffe100;
      }

      .cls-6 {
        fill: url(#Unnamed_Pattern_4);
      }
    </style>
    <pattern id="Unnamed_Pattern_4" data-name="Unnamed Pattern 4" x="0" y="0" width="12" height="16" patternTransform="translate(-1170 78.28)" patternUnits="userSpaceOnUse" viewBox="0 0 12 16">
      <g>
        <rect class="cls-3" x="0" width="12" height="16"/>
        <path class="cls-2" d="M13.95,18c-.15-.07-3.93-2-3.95-2.01-.04.01,3.86-1.93,3.96-1.99,0,0,.03.07.03.07l-3.49,2.1v-.35l3.49,2.08-.05.1h0Z"/>
        <path class="cls-2" d="M1.95,18c-.15-.07-3.93-2-3.95-2.01-.04.01,3.86-1.93,3.96-1.99,0,0,.03.07.03.07l-3.49,2.1v-.35l3.49,2.08-.05.1h0Z"/>
        <path class="cls-2" d="M7.95,10c-.15-.07-3.93-2-3.95-2.01-.04.01,3.86-1.93,3.96-1.99,0,0,.03.07.03.07l-3.49,2.1v-.35l3.49,2.08-.05.1h0Z"/>
        <path class="cls-2" d="M13.95,2C13.8,1.93,10.02,0,10,0c-.04.01,3.86-1.93,3.96-1.99,0,0,.03.07.03.07L10.51.17V-.18l3.49,2.08-.05.1h0Z"/>
        <path class="cls-2" d="M1.95,2C1.8,1.93-1.98,0-2,0c-.04.01,3.86-1.93,3.96-1.99,0,0,.03.07.03.07L-1.49.17V-.18L2,1.9l-.05.1h0Z"/>
      </g>
    </pattern>
  </defs>
  <g id="_레이어_1-2" data-name="레이어 1">
    <g>
      <path class="cls-4" d="M30,50.28C13.43,50.28,0,63.71,0,80.28v-30h30Z"/>
      <path class="cls-5" d="M110,50.28c-16.57,0-30,13.43-30,30v-30h30Z"/>
      <path class="cls-1" d="M95,50.28c0,22.09-17.91,40-40,40S15,72.37,15,50.28h80Z"/>
      <path class="cls-4" d="M65,50.28c-13.88,0-25.14-11.25-25.14-25.14S51.12,0,65,0v50.28Z"/>
      <path class="cls-1" d="M65,30.28v20h-30c16.57,0,30-8.95,30-20Z"/>
      <path class="cls-6" d="M95,50.28c0,22.09-17.91,40-40,40S15,72.37,15,50.28h80Z"/>
      <rect class="cls-3" y=".28" width="110" height="100"/>
    </g>
    <g>
      <path class="cls-4" d="M140,50c-16.57,0-30,13.43-30,30v-30h30Z"/>
      <path class="cls-5" d="M220,50c-16.57,0-30,13.43-30,30v-30h30Z"/>
      <path class="cls-1" d="M205,50c0,22.09-17.91,40-40,40s-40-17.91-40-40h80Z"/>
      <path class="cls-6" d="M205,50c0,22.09-17.91,40-40,40s-40-17.91-40-40h80Z"/>
      <path class="cls-4" d="M175,50c-13.88,0-25.14,11.25-25.14,25.14s11.25,25.14,25.14,25.14v-50.28Z"/>
      <path class="cls-1" d="M175,70v-20h-30c16.57,0,30,8.95,30,20Z"/>
      <path class="cls-6" d="M175,70v-20h-30c16.57,0,30,8.95,30,20Z"/>
      <rect class="cls-3" x="110" width="110" height="100"/>
    </g>
    <g>
      <path class="cls-4" d="M250,50c-16.57,0-30,13.43-30,30v-30h30Z"/>
      <path class="cls-5" d="M330,50c-16.57,0-30,13.43-30,30v-30h30Z"/>
      <path class="cls-1" d="M315,50c0,22.09-17.91,40-40,40s-40-17.91-40-40h80Z"/>
      <path class="cls-4" d="M285,50c-13.88,0-25.14-2.24-25.14-5s11.25-5,25.14-5v10Z"/>
      <path class="cls-1" d="M285,46.02v3.98h-30c16.57,0,30-1.78,30-3.98Z"/>
      <path class="cls-6" d="M315,50c0,22.09-17.91,40-40,40s-40-17.91-40-40h80Z"/>
      <rect class="cls-3" x="220" width="110" height="100"/>
    </g>
    <g>
      <path class="cls-4" d="M360,50c-16.57,0-30,13.43-30,30v-30h30Z"/>
      <path class="cls-5" d="M440,50c-16.57,0-30,13.43-30,30v-30h30Z"/>
      <path class="cls-1" d="M425,50c0,22.09-17.91,40-40,40s-40-17.91-40-40h80Z"/>
      <path class="cls-6" d="M425,50c0,22.09-17.91,40-40,40s-40-17.91-40-40h80Z"/>
      <path class="cls-4" d="M395,50c-13.88,0-25.14,2.24-25.14,5s11.25,5,25.14,5v-10Z"/>
      <path class="cls-1" d="M395,53.98v-3.98h-30c16.57,0,30,1.78,30,3.98Z"/>
      <path class="cls-6" d="M395,53.98v-3.98h-30c16.57,0,30,1.78,30,3.98Z"/>
      <path class="cls-4" d="M395,50c-13.88,0-25.14-2.24-25.14-5s11.25-5,25.14-5v10Z"/>
      <path class="cls-1" d="M395,46.02v3.98h-30c16.57,0,30-1.78,30-3.98Z"/>
      <path class="cls-6" d="M395,46.02v3.98h-30c16.57,0,30-1.78,30-3.98Z"/>
      <rect class="cls-3" x="330" width="110" height="100"/>
    </g>
  </g>
</svg>