<?xml version="1.0" encoding="UTF-8"?>
<svg id="_레이어_2" data-name="레이어 2" xmlns="http://www.w3.org/2000/svg" xmlns:xlink="http://www.w3.org/1999/xlink" viewBox="0 0 440 110">
  <defs>
    <style>
      .cls-1 {
        fill: #1b516c;
      }

      .cls-2 {
        fill: url(#_새_그라디언트_견본_1-2);
      }

      .cls-3 {
        fill: url(#Unnamed_Pattern_4-4);
      }

      .cls-4 {
        fill: url(#_새_그라디언트_견본_1-3);
      }

      .cls-5 {
        fill: #d0d9e5;
      }

      .cls-6 {
        fill: none;
      }

      .cls-7 {
        fill: url(#Unnamed_Pattern_4-5);
      }

      .cls-8 {
        fill: url(#Unnamed_Pattern_4-3);
      }

      .cls-9 {
        fill: url(#_새_그라디언트_견본_1);
      }

      .cls-10 {
        fill: url(#Unnamed_Pattern_4-7);
      }

      .cls-11 {
        fill: #d0d9e5;
      }

      .cls-12 {
        fill: url(#Unnamed_Pattern_4-2);
      }

      .cls-13 {
        fill: url(#_새_그라디언트_견본_1-4);
      }

      .cls-14 {
        fill: url(#Starling);
      }

      .cls-15 {
        fill: #ffe100;
      }

      .cls-16 {
        fill: url(#Unnamed_Pattern_4);
      }

      .cls-17 {
        fill: url(#Unnamed_Pattern_4-6);
      }
    </style>
    <linearGradient id="_새_그라디언트_견본_1" data-name="새 그라디언트 견본 1" x1="15" y1="75" x2="95" y2="75" gradientUnits="userSpaceOnUse">
      <stop offset="0" stop-color="#0dac67"/>
      <stop offset=".5" stop-color="#5c3e64"/>
      <stop offset="1" stop-color="#1b516c"/>
    </linearGradient>
    <pattern id="Unnamed_Pattern_4" data-name="Unnamed Pattern 4" x="0" y="0" width="12" height="16" patternTransform="translate(-1172 83.28)" patternUnits="userSpaceOnUse" viewBox="0 0 12 16">
      <g>
        <rect class="cls-6" x="0" width="12" height="16"/>
        <path class="cls-5" d="M13.95,18c-.15-.07-3.93-2-3.95-2.01-.04.01,3.86-1.93,3.96-1.99,0,0,.03.07.03.07l-3.49,2.1v-.35l3.49,2.08-.05.1h0Z"/>
        <path class="cls-5" d="M1.95,18c-.15-.07-3.93-2-3.95-2.01-.04.01,3.86-1.93,3.96-1.99,0,0,.03.07.03.07l-3.49,2.1v-.35l3.49,2.08-.05.1h0Z"/>
        <path class="cls-5" d="M7.95,10c-.15-.07-3.93-2-3.95-2.01-.04.01,3.86-1.93,3.96-1.99,0,0,.03.07.03.07l-3.49,2.1v-.35l3.49,2.08-.05.1h0Z"/>
        <path class="cls-5" d="M13.95,2C13.8,1.93,10.02,0,10,0c-.04.01,3.86-1.93,3.96-1.99,0,0,.03.07.03.07L10.51.17V-.18l3.49,2.08-.05.1h0Z"/>
        <path class="cls-5" d="M1.95,2C1.8,1.93-1.98,0-2,0c-.04.01,3.86-1.93,3.96-1.99,0,0,.03.07.03.07L-1.49.17V-.18L2,1.9l-.05.1h0Z"/>
      </g>
    </pattern>
    <linearGradient id="_새_그라디언트_견본_1-2" data-name="새 그라디언트 견본 1" x1="125" x2="205" xlink:href="#_새_그라디언트_견본_1"/>
    <pattern id="Unnamed_Pattern_4-2" data-name="Unnamed Pattern 4" patternTransform="translate(-1170 83.28)" xlink:href="#Unnamed_Pattern_4"/>
    <pattern id="Unnamed_Pattern_4-3" data-name="Unnamed Pattern 4" patternTransform="translate(-1170 83.28)" xlink:href="#Unnamed_Pattern_4"/>
    <linearGradient id="_새_그라디언트_견본_1-3" data-name="새 그라디언트 견본 1" x1="235" x2="315" xlink:href="#_새_그라디언트_견본_1"/>
    <pattern id="Unnamed_Pattern_4-4" data-name="Unnamed Pattern 4" patternTransform="translate(-1168 83.28)" xlink:href="#Unnamed_Pattern_4"/>
    <linearGradient id="_새_그라디언트_견본_1-4" data-name="새 그라디언트 견본 1" x1="345" x2="425" xlink:href="#_새_그라디언트_견본_1"/>
    <pattern id="Unnamed_Pattern_4-5" data-name="Unnamed Pattern 4" patternTransform="translate(-1170 83.28)" xlink:href="#Unnamed_Pattern_4"/>
    <pattern id="Unnamed_Pattern_4-6" data-name="Unnamed Pattern 4" patternTransform="translate(-1154 83.28)" xlink:href="#Unnamed_Pattern_4"/>
    <pattern id="Unnamed_Pattern_4-7" data-name="Unnamed Pattern 4" patternTransform="translate(-1166 -5986.09) scale(1 .2)" xlink:href="#Unnamed_Pattern_4"/>
    <pattern id="Starling" x="0" y="0" width="12" height="16" patternTransform="translate(-1154 -5947.96) scale(1 .2)" patternUnits="userSpaceOnUse" viewBox="0 0 12 16">
      <g>
        <rect class="cls-6" width="12" height="16"/>
        <path class="cls-11" d="M13.95,18c-.15-.07-3.93-2-3.95-2.01-.04.01,3.86-1.93,3.96-1.99,0,0,.03.07.03.07l-3.49,2.1v-.35l3.49,2.08-.05.1h0Z"/>
        <path class="cls-11" d="M1.95,18c-.15-.07-3.93-2-3.95-2.01-.04.01,3.86-1.93,3.96-1.99,0,0,.03.07.03.07l-3.49,2.1v-.35l3.49,2.08-.05.1h0Z"/>
        <path class="cls-11" d="M7.95,10c-.15-.07-3.93-2-3.95-2.01-.04.01,3.86-1.93,3.96-1.99,0,0,.03.07.03.07l-3.49,2.1v-.35l3.49,2.08-.05.1h0Z"/>
        <path class="cls-11" d="M13.95,2C13.8,1.93,10.02,0,10,0c-.04.01,3.86-1.93,3.96-1.99,0,0,.03.07.03.07L10.51.17V-.18l3.49,2.08-.05.1h0Z"/>
        <path class="cls-11" d="M1.95,2C1.8,1.93-1.98,0-2,0c-.04.01,3.86-1.93,3.96-1.99,0,0,.03.07.03.07L-1.49.17V-.18L2,1.9l-.05.1h0Z"/>
      </g>
    </pattern>
  </defs>
  <g id="_레이어_1-2" data-name="레이어 1">
    <g>
      <path class="cls-11" d="M30,55c-16.57,0-30,13.43-30,30v-30h30Z"/>
      <path class="cls-15" d="M110,55c-16.57,0-30,13.43-30,30v-30h30Z"/>
      <path class="cls-9" d="M95,55c0,22.09-17.91,40-40,40S15,77.09,15,55h80Z"/>
      <path class="cls-11" d="M65,55c-13.88,0-25.14-11.25-25.14-25.14s11.25-25.14,25.14-25.14v50.28Z"/>
      <path class="cls-1" d="M65,35v20h-30c16.57,0,30-8.95,30-20Z"/>
      <rect class="cls-6" width="110" height="110"/>
      <path class="cls-16" d="M95,55c0,22.09-17.91,40-40,40S15,77.09,15,55h80Z"/>
    </g>
    <g>
      <path class="cls-11" d="M140,55c-16.57,0-30,13.43-30,30v-30h30Z"/>
      <path class="cls-15" d="M220,55c-16.57,0-30,13.43-30,30v-30h30Z"/>
      <path class="cls-2" d="M205,55c0,22.09-17.91,40-40,40s-40-17.91-40-40h80Z"/>
      <path class="cls-12" d="M205,55c0,22.09-17.91,40-40,40s-40-17.91-40-40h80Z"/>
      <path class="cls-11" d="M175,55c-13.88,0-25.14,11.25-25.14,25.14s11.25,25.14,25.14,25.14v-50.28Z"/>
      <path class="cls-1" d="M175,75v-20h-30c16.57,0,30,8.95,30,20Z"/>
      <path class="cls-8" d="M175,75v-20h-30c16.57,0,30,8.95,30,20Z"/>
      <rect class="cls-6" x="110" width="110" height="110"/>
    </g>
    <g>
      <path class="cls-11" d="M250,55c-16.57,0-30,13.43-30,30v-30h30Z"/>
      <path class="cls-15" d="M330,55c-16.57,0-30,13.43-30,30v-30h30Z"/>
      <path class="cls-4" d="M315,55c0,22.09-17.91,40-40,40s-40-17.91-40-40h80Z"/>
      <path class="cls-11" d="M285,55c-13.88,0-25.14-2.24-25.14-5s11.25-5,25.14-5v10Z"/>
      <path class="cls-1" d="M285,51.02v3.98h-30c16.57,0,30-1.78,30-3.98Z"/>
      <rect class="cls-6" x="220" width="110" height="110"/>
      <path class="cls-3" d="M315,55c0,22.09-17.91,40-40,40s-40-17.91-40-40h80Z"/>
    </g>
    <g>
      <path class="cls-11" d="M360,55c-16.57,0-30,13.43-30,30v-30h30Z"/>
      <path class="cls-15" d="M440,55c-16.57,0-30,13.43-30,30v-30h30Z"/>
      <path class="cls-13" d="M425,55c0,22.09-17.91,40-40,40s-40-17.91-40-40h80Z"/>
      <path class="cls-11" d="M395,55c-13.88,0-25.14,2.24-25.14,5s11.25,5,25.14,5v-10Z"/>
      <path class="cls-1" d="M395,58.98v-3.98h-30c16.57,0,30,1.78,30,3.98Z"/>
      <path class="cls-7" d="M395,58.98v-3.98h-30c16.57,0,30,1.78,30,3.98Z"/>
      <path class="cls-11" d="M395,55c-13.88,0-25.14-2.24-25.14-5s11.25-5,25.14-5v10Z"/>
      <path class="cls-1" d="M395,51.02v3.98h-30c16.57,0,30-1.78,30-3.98Z"/>
      <rect class="cls-6" x="330" width="110" height="110"/>
      <path class="cls-17" d="M425,55c0,22.09-17.91,40-40,40s-40-17.91-40-40h80Z"/>
      <path class="cls-10" d="M395,58.98v-3.98h-30c16.57,0,30,1.78,30,3.98Z"/>
      <path class="cls-14" d="M395,51.02v3.98h-30c16.57,0,30-1.78,30-3.98Z"/>
    </g>
  </g>
</svg>