<?xml version="1.0" encoding="UTF-8"?>
<svg id="_레이어_1" data-name="레이어 1" xmlns="http://www.w3.org/2000/svg" xmlns:xlink="http://www.w3.org/1999/xlink" viewBox="0 0 200 200">
  <defs>
    <style>
      .cls-1 {
        fill: #1b516c;
      }

      .cls-2 {
        fill: #d0d9e5;
      }

      .cls-3 {
        fill: none;
      }

      .cls-4 {
        fill: #d0d9e5;
      }

      .cls-5 {
        fill: #ffe100;
      }

      .cls-6 {
        fill: url(#Unnamed_Pattern_4);
      }
    </style>
    <pattern id="Unnamed_Pattern_4" data-name="Unnamed Pattern 4" x="0" y="0" width="12" height="16" patternTransform="translate(-440 -220)" patternUnits="userSpaceOnUse" viewBox="0 0 12 16">
      <g>
        <rect class="cls-3" x="0" width="12" height="16"/>
        <path class="cls-2" d="M13.95,18c-.15-.07-3.93-2-3.95-2.01-.04.01,3.86-1.93,3.96-1.99,0,0,.03.07.03.07l-3.49,2.1v-.35l3.49,2.08-.05.1h0Z"/>
        <path class="cls-2" d="M1.95,18c-.15-.07-3.93-2-3.95-2.01-.04.01,3.86-1.93,3.96-1.99,0,0,.03.07.03.07l-3.49,2.1v-.35l3.49,2.08-.05.1h0Z"/>
        <path class="cls-2" d="M7.95,10c-.15-.07-3.93-2-3.95-2.01-.04.01,3.86-1.93,3.96-1.99,0,0,.03.07.03.07l-3.49,2.1v-.35l3.49,2.08-.05.1h0Z"/>
        <path class="cls-2" d="M13.95,2C13.8,1.93,10.02,0,10,0c-.04.01,3.86-1.93,3.96-1.99,0,0,.03.07.03.07L10.51.17V-.18l3.49,2.08-.05.1h0Z"/>
        <path class="cls-2" d="M1.95,2C1.8,1.93-1.98,0-2,0c-.04.01,3.86-1.93,3.96-1.99,0,0,.03.07.03.07L-1.49.17V-.18L2,1.9l-.05.1h0Z"/>
      </g>
    </pattern>
  </defs>
  <path class="cls-4" d="M75,100c-16.57,0-30,13.43-30,30v-30h30Z"/>
  <path class="cls-5" d="M155,100c-16.57,0-30,13.43-30,30v-30h30Z"/>
  <path class="cls-1" d="M140,100c0,22.09-17.91,40-40,40s-40-17.91-40-40h80Z"/>
  <path class="cls-6" d="M140,100c0,22.09-17.91,40-40,40s-40-17.91-40-40h80Z"/>
  <path class="cls-4" d="M110,100c-13.88,0-25.14,11.25-25.14,25.14s11.25,25.14,25.14,25.14v-50.28Z"/>
  <path class="cls-1" d="M110,120v-20h-30c16.57,0,30,8.95,30,20Z"/>
  <path class="cls-6" d="M110,120v-20h-30c16.57,0,30,8.95,30,20Z"/>
</svg>